<svg width="400" height="387.097" xmlns="http://www.w3.org/2000/svg"><path d="M201.143 14.684c.142.23.557.418.923.418s1.035.258 1.486.574c1.499 1.05 8.258 1.263 8.258.261 0-.473-4.463-1.328-7.883-1.51-2.115-.112-2.964-.034-2.784.257m-31.153 1.951c-14.099.291-15.557.522-18.133 2.871-.676.616-1.358.81-2.711.77-5.231-.155-11.172 1.276-17.491 4.211-1.597.742-3.252 1.472-3.678 1.623-.735.259-.739.293-.074.667.386.216.909.316 1.162.222.253-.095 1.855.044 3.558.308 1.704.264 2.619.501 2.033.527-.661.028-1.065.263-1.065.619 0 .316-.479.681-1.064.812-4.102.915-7.453 3.367-6.651 4.865.28.523.169.721-.513.913-1.116.315-9.045 3.555-10.486 4.285-.603.306-1.318.556-1.588.556s-1.249.548-2.174 1.219c-1.786 1.294-5.859 3.427-6.543 3.427-.224 0-1.236.594-2.248 1.319-2.454 1.757-5.461 3.328-6.373 3.328-.406 0-1.217.524-1.802 1.165-.585.64-1.835 1.555-2.779 2.033-.943.477-2.415 1.749-3.27 2.826-2.056 2.586-5.045 4.36-7.88 4.676-1.207.135-2.503.513-2.879.84-.619.539-.74.525-1.282-.148-.426-.529-.658-.603-.801-.259-.111.266-.469.484-.796.484-.406 0-.212-.391.613-1.235.664-.68 1.208-1.365 1.208-1.523 0-.158.305-.385.678-.503.825-.262 1.758-1.658 1.299-1.941-.182-.113-.781.212-1.33.721-.55.51-1.499 1.036-2.109 1.17-1.97.433-3.959 2.403-3.959 3.92 0 1.543.286 1.628 1.71.508.573-.45 1.162-.697 1.31-.549.148.148-.035.492-.407.765-.834.609-.867.99-.087.99 2.177 0 1.23 2.488-1.802 4.735-.774.573-2.429 2.293-3.679 3.823-2.709 3.314-9.195 9.813-10.695 10.716-.586.353-1.065.83-1.065 1.06 0 .23-.77 1.915-1.712 3.745-3.615 7.026-6.362 9.634-10.73 10.187-.711.09-1.343.312-1.403.493-.06.182-.913 1.714-1.894 3.405-3.274 5.641-3.883 6.93-4.547 9.615-.363 1.467-.913 3.157-1.222 3.756-.91 1.76.686 5.097 1.706 3.567 1.146-1.717 4.125-5.537 4.318-5.537.367 0 2.706-2.156 2.706-2.494 0-.162.78-1.086 1.734-2.053.953-.968 1.842-2.101 1.975-2.52.3-.945 1.373-2.227 1.864-2.227.202 0 .68-.282 1.061-.628.858-.775 1.885-.44 1.885.616 0 .87.397 1.009 1.04.366.9-.9.752.305-.215 1.759-8.381 12.596-15.425 26.735-20.245 40.633-.673 1.942-1.486 2.474-2.838 1.859-2.331-1.062-2.993-6.048-1.371-10.315 1.028-2.704-.232-4.304-3.12-3.961-3.215.38-5.212 2.48-4.735 4.976.246 1.289-.45 3.456-1.845 5.737-.587.96-1.351 2.792-1.698 4.07-.348 1.277-.798 2.625-1.002 2.995-.51.927-.483 19.11.03 20.068.22.412 1.135 1.118 2.033 1.571 3.383 1.704 4.924 3.309 4.924 5.13 0 1.849.513 2.569 1.832 2.569 1.325 0 1.403.607.883 6.919-.26 3.157-.498 8.163-.529 11.124l-.056 5.383-1.276.123c-1.079.104-1.405.389-2.11 1.839-.459.945-.974 1.717-1.144 1.717-.862 0-.135 1.534 1.116 2.355 1.736 1.139 2.012 1.803.822 1.971-1.231.175-1.325 1.573-.309 4.59 1.102 3.271.796 7.347-.552 7.347-1.375 0-1.775-.764-1.775-3.394 0-1.356-.155-2.758-.345-3.117-.539-1.02-1.77-14.939-1.395-15.786.299-.676.342-.656.49.226.214 1.274.79 1.936 1.685 1.936.879 0 .898-.271.146-2.07-.319-.765-.581-1.798-.581-2.297 0-.499-.458-2.03-1.019-3.401-.871-2.134-1.025-3.108-1.064-6.753l-.046-4.259-.968.106c-2.516.277-2.91 2.836-2.57 16.698.242 9.905.456 13.72.823 14.686.108.282.369 3.244.583 6.583.213 3.338.651 7.377.974 8.974.323 1.597.77 3.95.993 5.228.223 1.277.635 3.107.915 4.065.28.959.708 2.584.951 3.612.243 1.029.95 2.958 1.572 4.288.622 1.329 1.245 2.928 1.385 3.551.141.624.484 1.831.765 2.683.28.852.8 2.594 1.157 3.872.808 2.895 1.374 4.414 2.908 7.791 2.078 4.581 2.322 5.19 2.322 5.818 0 .335.489 1.593 1.087 2.794 2.682 5.39 3.56 7.276 3.56 7.649 0 .221.435.811.968 1.311.604.568.968 1.335.968 2.042 0 3.224 3.693 8.655 10.711 15.746 2.026 2.048 3.616 3.98 3.616 4.395 0 1.975 2.936 6.084 4.347 6.084.391 0 .773.218.848.484.076.267.337 1.218.58 2.115.398 1.467.586 1.654 1.883 1.875.793.135 1.933.592 2.533 1.015.6.423 1.353.669 1.674.546 1.096-.421 1.974.465 2.244 2.263.525 3.503 1.6 4.804 3.364 4.074 1.03-.427 1.282-.386 2.203.355.572.46 1.432 1.037 1.911 1.281.519.264.872.801.872 1.327 0 1.056.418 1.388 1.167.925.302-.186.729-.211.949-.054.221.157 1.359.6 2.53.985 3.654 1.201 4.41 1.666 7.573 4.66 4.053 3.837 3.854 3.642 5.731 5.642 1.301 1.387 6.071 5.11 8.533 6.659 1.108.698 4.615 2.247 5.087 2.247.29 0 1.347.436 2.349.968 1.001.533 2.154.968 2.563.968.959 0 2.186.64 3.408 1.776.536.499 2.795 1.59 5.019 2.426 2.225.835 4.118 1.756 4.207 2.047.565 1.84 2.805 3.028 6.603 3.499 1.604.199 3.102.516 3.329.705.227.188 2.237.775 4.467 1.304 2.23.529 4.752 1.145 5.604 1.37.852.224 2.661.412 4.021.417 2.134.008 2.596.142 3.37.977.864.932 1.075.968 5.694.968 3.14 0 5.454.199 6.698.577 1.046.317 3.034.593 4.418.613 1.384.021 3.563.195 4.84.388 1.278.193 3.654.513 5.279.711 1.625.198 3.756.632 4.734.964 2.299.78 28.525.718 29.943-.071.566-.316 2.909-.471 7.091-.471 5.866 0 6.377-.06 8.396-.984 2.647-1.21 7.659-1.27 8.395-.1.613.976.138 1.211-3.156 1.561-6.236.662-9.274 1.083-12.085 1.675-4.613.97-10.464 1.277-24.899 1.306-11.153.022-13.667.126-14.593.605-1.236.639-2.258.42-3.028-.65-.365-.507-1.011-.703-2.326-.703-1.001 0-2.428-.187-3.172-.416-.744-.229-4.228-.548-7.742-.709-4.139-.189-6.73-.478-7.357-.819-.879-.477-3.233-.963-9.294-1.917-1.171-.184-3.959-.979-6.195-1.767-7.444-2.623-16.295-4.038-16.256-2.6.01.363 3.629 2.033 4.407 2.033.315 0 .681.174.813.387.131.213.515.387.852.387.336 0 1.328.33 2.203.732 3.251 1.496 4.774 2.002 8.174 2.715 1.917.402 3.976.924 4.575 1.159.6.235 2.255.434 3.679.441 2.221.011 5.533.784 6.848 1.6.213.132 1.676.439 3.251.681 1.576.243 3.002.526 3.17.63.319.197 4.05.784 8.681 1.365 11.633 1.461 37.36 1.511 40.851.081.533-.219 2.51-.524 4.395-.679 2.439-.201 3.618-.474 4.092-.948.56-.56 1.258-.643 4.394-.523 3.291.127 3.967.035 5.761-.784 1.727-.788 2.26-.87 3.544-.544 1.524.386 1.955.324 6.856-.999 1.171-.316 4.256-.666 6.855-.777 3.379-.145 5.09-.391 6.002-.864 4.184-2.168 5.68-2.837 6.891-3.082 3.45-.698 7.862-2.607 12.381-5.358 1.378-.839 3.207-1.614 4.065-1.721 1.883-.237 2.915-1.054 2.915-2.304 0-.978 2.077-2.189 3.421-1.995 1.217.176 2.321-.475 3.735-2.2.922-1.125 1.723-1.727 2.297-1.727.486 0 1.214-.368 1.62-.817.406-.45 2.219-1.881 4.029-3.182 1.81-1.3 3.35-2.501 3.421-2.668.071-.167.287-.303.481-.303s2.109-1.307 4.255-2.905c2.146-1.597 4.226-2.904 4.621-2.904.396 0 .981-.261 1.3-.581.32-.319.698-.58.841-.58.143 0 1.51-1.264 3.037-2.808 1.527-1.544 3.469-3.156 4.317-3.582 2.442-1.227 5.698-3.487 6.962-4.832 1.424-1.515 3.81-2.718 5.397-2.721.653-.001 1.709-.349 2.348-.772.949-.629 1.834-.772 4.84-.784 5.234-.021 6.576-1.238 6.58-5.967.004-4.246.964-7.054 3.118-9.126 2.555-2.458 4.746-7.253 6.193-13.552.555-2.417 1.546-4.73 2.736-6.387 1.06-1.476 1.141-1.801.899-3.619-.175-1.322-.125-1.998.148-1.998 1.741 0 3.165-2.888 3.169-6.425.003-3.33 1.409-8.875 3.06-12.068.336-.649.998-2.343 2.119-5.418.291-.798.828-2.497 1.194-3.775.365-1.278 1.024-3.195 1.465-4.259.44-1.065.883-2.72.983-3.677.1-.957.509-2.157.909-2.666.401-.509.732-1.468.738-2.132.005-.663.192-1.99.416-2.948.224-.959.669-3.311.99-5.228 1.037-6.201 1.638-9.636 2.066-11.81.548-2.782.552-12.433.007-14.908-.234-1.065-.555-3.069-.713-4.453-.157-1.385-.571-2.953-.919-3.485-.535-.82-.66-2.656-.812-12.004-.171-10.486-.406-12.765-1.454-14.134-.163-.213-.418-1.084-.567-1.936a39.076 39.076 0 0 0-.773-3.291c-.276-.959-.887-3.452-1.358-5.542l-.856-3.799.873-.929c1.311-1.396.78-3.976-1.632-7.93-.657-1.077-.888-2.299-1.128-5.957-.292-4.473-.756-7.342-1.572-9.725a27.34 27.34 0 0 1-.693-2.517c-.161-.745-.754-2.379-1.317-3.63-.562-1.251-1.023-2.628-1.023-3.061 0-1.154-2.584-5.577-3.722-6.371-2.814-1.963-2.877-2.068-2.912-4.849-.024-1.856-.229-2.868-.708-3.485-.371-.478-1.062-1.915-1.536-3.193-.473-1.277-1.513-3.194-2.31-4.259-1.687-2.254-2.414-3.529-3.531-6.196-1.547-3.689-3.047-6.287-4.426-7.666-.862-.862-3.314-5.571-3.314-6.364 0-.748-1.022-2.428-1.474-2.424-.72.006-1.476 2.181-1.125 3.236.236.706.225 1.226-.029 1.481-.562.562-2.018-1.004-2.018-2.171 0-1.759-3.438-5.646-4.994-5.646-.208 0-1.218-.962-2.243-2.137-1.024-1.175-2.584-2.564-3.465-3.088-.881-.524-2.361-1.871-3.289-2.994a142.392 142.392 0 0 0-2.077-2.474c-.214-.237-.999-1.173-1.745-2.08-.745-.907-2.749-2.71-4.453-4.006-1.703-1.297-3.321-2.576-3.594-2.843-.273-.266-1.257-1.03-2.186-1.697s-2.421-2.224-3.316-3.459c-1.599-2.208-2.332-2.726-5.812-4.112-2.729-1.088-5.068-2.992-7.413-6.036-.706-.916-1.65-1.531-3.04-1.98-2.667-.862-3.143-.465-1.083.901.914.606 3.23 2.424 5.147 4.038 4.608 3.883 4.372 3.699 4.765 3.699.606 0 3.31 2.859 2.849 3.013-.434.145-1.189-.046-5.475-1.383-1.167-.364-4.018-1.663-6.337-2.888-2.319-1.225-4.349-2.227-4.511-2.227-.163 0-.513-.261-.778-.58-.265-.32-.886-.581-1.38-.581-.493 0-.994-.156-1.112-.347-.44-.713-3.215-1.848-6.027-2.466-1.597-.351-4.197-.919-5.777-1.262-1.976-.429-3.302-.978-4.25-1.759-.758-.625-1.584-1.136-1.835-1.136-.251 0-1.562-.49-2.913-1.089-1.351-.6-3.676-1.405-5.167-1.79-1.49-.385-5.036-1.463-7.879-2.396-2.843-.932-5.669-1.695-6.279-1.695-.713 0-1.258-.277-1.524-.775-.349-.652-.811-.774-2.937-.774-1.547 0-2.982-.238-3.712-.615-.981-.507-1.489-.539-2.903-.184-1.457.367-1.959.324-3.349-.291-1.207-.534-1.856-.625-2.479-.348-.607.271-1.285.2-2.42-.254-.867-.347-1.927-.631-2.356-.631-1.077 0-1.373-1.038-.555-1.943.614-.678.62-.775.06-.99-.987-.379-1.597.011-1.606 1.026l-.008.939-5.034-.114c-5.905-.133-7.458-.796-5.585-2.387l.938-.796-1.936.099c-1.564.081-1.937.233-1.939.794-.009 1.809-4.129 1.999-7.473.345-2.132-1.055-5.43-1.903-8.183-2.104-2.432-.177-.499-1.327 2.771-1.648 1.551-.152 3.408-.519 4.126-.815.718-.296 1.842-.538 2.498-.538.819 0 1.067-.125.791-.4-.554-.555-9.588-.698-24.537-.39m55.08 1.047c-.753.304-.158.905.897.905 1.062 0 1.266-.569.332-.927-.336-.129-.641-.221-.677-.204-.036.016-.284.118-.552.226m-20.221 3.712c.016.932 1.418 2.356 2.071 2.106.832-.32.796-.718-.159-1.743-.864-.927-1.926-1.129-1.912-.363m37.165 1.392c0 .18.352.646.783 1.036.886.802 1.816.303 1.41-.756-.239-.622-2.193-.871-2.193-.28m11.479 4.224c.308 1.176 3.735 2.564 4.484 1.816.611-.612-.262-1.65-1.573-1.87-.78-.13-1.799-.342-2.264-.469-.695-.191-.81-.099-.647.523m-115.458 2.791c.262.424-3.37 2.634-4.831 2.939-.532.111-1.797.475-2.811.809-2.359.777-3.429.484-2.396-.657.763-.843 3.751-2.293 4.772-2.315.346-.008 1.064-.263 1.597-.567 1.109-.634 3.328-.761 3.669-.209m-22.74 1.45a5.538 5.538 0 0 0 1.743 0c.479-.092.087-.168-.871-.168-.959 0-1.351.076-.872.168m-3.475 1.031c-.291.291-.914.652-1.383.8-.469.149-.853.413-.853.587s-.349.407-.775.519c-.807.211-1.088 1.049-.351 1.049.232 0 .866-.348 1.407-.774.542-.426 1.223-.775 1.513-.775.291 0 .529-.152.529-.339 0-.186.534-.445 1.187-.576.66-.132 1.08-.411.946-.629-.347-.561-1.599-.483-2.22.138m165.624 3.804c.426.241.914.671 1.084.956.171.285.606.524.968.531.363.007.997.268 1.411.581.413.312.979.568 1.258.568.742 0 .619-.757-.171-1.049-.373-.137-.765-.363-.871-.502-.39-.508-2.853-1.546-3.641-1.535-.803.012-.803.017-.038.45M87.238 47.448c-.595.752-1.865 1.829-2.824 2.391-3.772 2.216-3.589 3.512.315 2.225 1.66-.547 1.938-.829 3.248-3.292 1.588-2.984 1.168-3.737-.739-1.324M76.283 62.665c0 1.015-.379 1.259-1.238.799-.597-.32-.655-.513-.289-.955.647-.779 1.527-.689 1.527.156m-9.58 3.881c-.813.821-2.289 1.852-3.281 2.29-1.3.575-2.324 1.479-3.668 3.236-2.136 2.793-3.245 3.895-5.151 5.114-.749.479-1.512 1.375-1.715 2.013-.201.632-.817 1.759-1.368 2.505-.551.745-1.329 2.052-1.729 2.904-.4.852-.888 1.871-1.085 2.264-.382.767-.054 1.45.395.821.149-.207 1.007-.877 1.908-1.488 1.777-1.205 5.046-4.22 5.938-5.477.306-.43 1.294-1.358 2.196-2.061 2.856-2.228 10.398-12.072 10.015-13.072-.33-.858-.871-.649-2.455.951m139.87 10.536c1.423.44 3.141 1.135 3.816 1.544.675.41 1.576.924 2.002 1.143.426.218 1.297.741 1.936 1.162.639.42 1.423.884 1.743 1.031.319.147 2.674 1.508 5.233 3.026 2.559 1.517 4.911 2.882 5.228 3.033.316.151 1.038.577 1.605.947.567.371 1.874 1.177 2.904 1.791 6.661 3.972 7.101 5.531 7.101 25.124v15.429l-1.163 2.345c-2.024 4.078-5.743 7.308-11.228 9.752-.319.142-1.103.594-1.742 1.003-.639.41-2.361 1.383-3.827 2.163a170.558 170.558 0 0 0-5.55 3.123c-1.586.938-2.949 1.706-3.027 1.706-.078 0-.891.491-1.807 1.092-2.397 1.571-4.76 2.208-7.909 2.132-3.175-.076-5.522-1.04-10.794-4.43-.852-.547-2.594-1.573-3.872-2.279s-3.021-1.732-3.873-2.28c-2.376-1.528-3.029-1.915-3.909-2.318-.447-.205-1.975-1.083-3.395-1.953-1.421-.87-2.684-1.581-2.807-1.581-1.346 0-4.65-4.265-5.749-7.42-.832-2.39-.868-30.574-.042-33.295 1.478-4.87 4.419-7.452 15.128-13.281 1.491-.812 3.46-1.976 4.376-2.588.915-.612 1.738-1.112 1.828-1.112.09 0 1.489-.784 3.11-1.743 1.621-.958 3.072-1.742 3.225-1.742.153 0 .492-.214.754-.476 1.835-1.835 6.635-2.305 10.705-1.048M68.151 85.137c0 .648-5.323 6.725-5.55 6.337-.568-.975-.02-3.387.796-3.503.473-.068 1.59-.888 2.482-1.824 1.439-1.51 2.272-1.88 2.272-1.01m-21.957 4.602c-3.013 3.933-3.852 5.964-2.655 6.423.908.349 4.476-5.347 4.476-7.145 0-1.115-.595-.879-1.821.722m4.048-.913c-.373.282-.678.713-.678.955 0 .58.883.566 1.472-.023 1.072-1.072.411-1.847-.794-.932m8.536 8.045a258.663 258.663 0 0 0-3.018 4.303c-1.073 1.59-1.356 1.728-1.7.831-.393-1.025 1.612-4.659 3.392-6.147 3.929-3.283 4.23-3.053 1.326 1.013m149.16 2.809c-3.606 2.375-8.85 8.976-8.291 10.435.571 1.487 3.257.781 3.257-.856 0-.944 6.438-6.939 7.764-7.23 2.647-.582 5.768 2.591 5.248 5.335-.261 1.378-5.085 6.609-7.676 8.324-1.642 1.086-1.611 1.028-1.063 2.053 1.661 3.104 11.99-6.381 11.99-11.01 0-5.327-7.089-9.778-11.229-7.051m-6.591 14.935c-3.616 3.65-6.574 6.786-6.574 6.97 0 .493 1.144 1.551 1.677 1.551 1.059 0 13.498-13.014 13.362-13.978-.325-2.298-1.593-1.48-8.465 5.457m-157.975-2.224c-.933 2.555-1.105 3.38-.748 3.6.197.122.535-.18.75-.672.216-.492.749-1.488 1.186-2.212.633-1.05.691-1.383.286-1.64-.814-.516-.987-.407-1.474.924m149.651 1.971c-3.416 3.002-6.44 6.732-6.817 8.408-1.187 5.282 4.517 10.492 9.766 8.92 1.869-.56 7.78-6.112 8.841-8.305 1.541-3.181-.416-4.727-2.419-1.911-5.726 8.048-11.776 9.749-13.285 3.736-.524-2.088 2.693-6.188 7.394-9.422 2.352-1.619 2.357-2.856.012-3.023-1.353-.096-1.794.106-3.492 1.597m19.969 72.085c-.096.426-.183 6.612-.194 13.747l-.02 12.972h6.389c3.515 0 6.738-.088 7.164-.194.761-.19.776.025.877 12.197l.102 12.392h-14.532l-.1 19.489c-.114 22.041-.273 20.852 3.022 22.533 1.822.93 11.059 1.15 11.925.285 1.031-1.032 1.211.851 1.211 12.678 0 13.205.01 13.139-1.941 12.58-.733-.211-4.21-.383-7.725-.383-15.729-.001-24.404-4.512-29.419-15.295-1.825-3.923-1.727-2.521-1.94-27.88l-.202-24.007-4.937.003-4.937.004v-12.266c0-12.826.035-13.092 1.646-12.264.373.192 2.377.299 4.453.238l3.775-.11.102-13.12c.069-8.868-.032-13.281-.311-13.617-.674-.813.248-.869 13.374-.811 12.177.054 12.389.068 12.218.829m170.224 5.936c-.808.892-.947 6.04-.157 5.78.281-.093.533-.988.6-2.131.064-1.084.351-2.166.638-2.404.514-.427.391-1.953-.158-1.953-.155 0-.571.318-.923.708m1.489 10.557c-1.494 2.979-1.549 3.224-1.549 6.912 0 3.458-.092 3.948-.955 5.118-.725.98-.993 1.902-1.108 3.81-.137 2.257-.801 3.872-1.592 3.872-.793 0-1.618-2.411-1.217-3.559.53-1.521.55-3.537.032-3.217-.213.132-.388.539-.388.905s-.348.964-.774 1.329c-.748.64-.974 1.694-.816 3.804.041.552-.194 1.226-.523 1.499-.785.652-.762 2.288.045 3.18.546.603.569.869.154 1.773-.269.584-.639 2.718-.824 4.741-.673 7.381-.895 8.317-3.082 12.972-1.398 2.978-3.86 10.819-3.86 12.296 0 1.501-.754 3.396-1.847 4.643-.325.371-.875 2.026-1.221 3.678-.387 1.846-1.058 3.641-1.741 4.657-1.685 2.505-1.025 3.866 1.009 2.08 2.838-2.492 4.696-1.961 4.207 1.201-.156 1.01-.195 1.925-.087 2.033.536.536 1.629.08 2.082-.868.285-.597.888-1.119 1.369-1.188 1.18-.168 2.171-1.54 4.237-5.866.969-2.03 1.917-3.994 2.105-4.364.188-.37.348-1.067.355-1.549.007-.482.35-1.574.761-2.425.412-.852.754-1.999.762-2.548.007-.549.797-2.375 1.755-4.057.959-1.681 1.742-3.41 1.741-3.841-.001-.431.245-1.568.546-2.526 1.103-3.505 1.779-6.955 1.779-9.076 0-1.955.096-2.209.957-2.537.561-.213 1.042-.771 1.162-1.346l.407-1.956c.163-.784.007-1.048-.801-1.355-1.171-.446-1.05-1.364.382-2.91.92-.992 1.378-3.107 1.378-6.358 0-1.014.427-2.898.972-4.289.535-1.365.91-2.661.834-2.881-.076-.22.005-.904.179-1.52.399-1.414-.506-3.07-2.275-4.166-1.182-.731-1.223-.829-.678-1.608.76-1.084.734-1.539-.195-3.462-.427-.884-.674-1.929-.549-2.324.245-.773-.434-1.855-1.143-1.818-.24.012-1.133 1.412-1.985 3.111m-240.797 11.426c12.348 2.515 18.95 8.425 21.947 19.646.836 3.132.844 3.469.844 36.462v33.301l-1.042.121c-.953.11-2.942-.97-10.561-5.735-.51-.32-1.982-1.225-3.27-2.012l-2.342-1.43-2.833 2.786c-10.918 10.736-30.471 9.893-39.585-1.708-9.471-12.056-8.491-32.323 2.069-42.786 1.627-1.611 7.096-5.189 7.933-5.189.185 0 .886-.251 1.557-.557 3.161-1.444 10.855-2.541 17.824-2.541 5.63 0 6.286-.563 4.649-3.995-1.253-2.628-1.189-2.618-17.269-2.573l-14.439.04-.102-12.225-.102-12.225h15.84c12.994 0 16.386.112 18.882.62m137.989.099c1.811.388 3.782.907 4.382 1.155.599.247 1.231.45 1.403.45 2.169 0 11.253 6.606 11.253 8.183 0 .154.237.517.527.807.956.956 3.244 6.252 3.979 9.209.676 2.721.722 5.01.722 36.205v33.301l-1.051.122c-.734.084-2.045-.499-4.357-1.937-1.818-1.131-3.698-2.283-4.177-2.559-.479-.277-1.338-.8-1.908-1.162-.571-.363-2.104-1.31-3.407-2.106l-2.368-1.446-2.789 2.802c-7.949 7.984-20.736 9.889-31.544 4.7-2.955-1.419-8.896-6.705-9.755-8.679-.23-.53-.808-1.661-1.284-2.513-4.488-8.039-4.548-22.309-.13-30.784 5.707-10.946 14.867-15.158 33.922-15.598l3.678-.085.117-1.607c.104-1.416-.063-1.798-1.392-3.195l-1.509-1.587h-29.162v-24.395l15.78.007c13.784.006 16.195.096 19.07.712m-152.178 51.794c-6.733 2.157-8.069 10.171-2.218 13.308l1.792.961 3.656-.622c2.947-.501 4.066-.894 5.772-2.026 4.249-2.821 4.206-2.741 4.08-7.496l-.11-4.169-6.195-.071c-3.408-.039-6.457.013-6.777.115m136.758.198c-1.706.498-4.558 3.389-4.906 4.973-1.849 8.417 6.749 11.581 15.659 5.763l3.142-2.051-.109-4.464-.108-4.463-6.196-.067c-3.407-.036-6.774.103-7.482.309M60.019 320.83c0 .116.436.68.968 1.255.809.871.968.928.968.342 0-.773-.87-1.807-1.521-1.807-.228 0-.415.094-.415.21" fill="#0c144c" fill-rule="evenodd"/></svg>