<svg width="400" height="200" xmlns="http://www.w3.org/2000/svg"><path d="M89.4 17.601c-2.605.127-4.445.408-7.957 1.217-.912.21-1.812.381-2 .379-.529-.004-5.047 1.427-8.743 2.77-2.393.869-9.559 4.284-11.254 5.362-.58.369-1.091.671-1.137.671-.046 0-1.506.954-3.246 2.12-6.906 4.627-14.776 12.371-19.676 19.36-.378.539-.917 1.304-1.197 1.7-1.839 2.593-5.258 8.746-6.605 11.887-.339.788-.737 1.703-.885 2.033-.148.33-.331.848-.407 1.152-.075.303-.215.6-.309.658-.095.059-.231.551-.304 1.095-.072.543-.254 1.091-.405 1.216-.16.132-.275.61-.275 1.138 0 .566-.125 1.048-.332 1.276-.291.322-.299.464-.068 1.165.225.682.217.967-.054 1.949-.469 1.697-1.103 4.569-1.337 6.051-.112.715-.297 1.615-.409 2-.267.913-.498 5.181-.319 5.894.243.968.413.346.632-2.302.149-1.811.306-2.684.526-2.935.204-.233.346-.9.408-1.918.104-1.717.333-2.171.871-1.724.306.254.319.218.161-.419-.387-1.551-.096-3.126.516-2.799.39.209.397.172.271-1.321l-.13-1.535.532.133.532.134v-1.281c0-1.112.053-1.294.4-1.385.311-.081.4-.273.4-.86 0-.486.146-.912.408-1.19.224-.239.461-.785.527-1.213.066-.429.231-.914.368-1.079.138-.165.316-.525.398-.8.081-.275.218-.59.304-.7.171-.219 1.763-3.242 3.686-7 1.447-2.826 2.44-4.351 5.562-8.535C43.094 44.281 51.407 36.686 58 32.473 59.888 31.267 68.294 27 68.783 27c.14 0 .494-.131.786-.291.853-.467 3.239-1.44 4.431-1.806l2.3-.704c.66-.201 2.055-.559 3.1-.794 1.045-.236 2.305-.558 2.8-.717.495-.158 1.485-.339 2.2-.403.715-.063 2.065-.281 3-.485 3.463-.756 14.916-.698 19.1.095.99.188 2.569.513 3.51.723.94.21 1.885.386 2.1.391.214.005.75.14 1.19.301.44.16 1.385.426 2.1.59 2.672.613 4.145 1.07 5.732 1.775.898.399 1.784.725 1.97.725.185 0 .575.123.867.274.292.15 1.116.559 1.831.909.715.35 2.11 1.064 3.1 1.588.99.523 2.385 1.254 3.1 1.623 1.634.843 4.251 2.532 6.2 4 3.855 2.904 5.174 3.948 6.1 4.827.55.523 1.358 1.249 1.794 1.614 2.786 2.33 5.101 4.877 6.875 7.565a72.768 72.768 0 0 0 1.837 2.6c.611.825 1.456 2.04 1.878 2.7l1.218 1.9c2.589 4.021 5.72 10.607 6.918 14.55l.79 2.6c.225.742.582 2.096.793 3.008.21.911.422 1.721.471 1.8.12.195.838 4.587 1.265 7.742.413 3.048.473 14.133.091 16.7-.123.825-.451 3.075-.729 5-.278 1.925-.606 3.805-.728 4.177a26.08 26.08 0 0 0-.479 1.8c-.371 1.623-1.097 4.108-2.11 7.223-.698 2.145-1.015 2.934-2.264 5.619-.286.616-.52 1.17-.52 1.231 0 .682-5.776 10.014-8.2 13.249a71.63 71.63 0 0 0-1.4 1.916c-.165.246-.547.738-.85 1.093-.628.737-.672.892-.25.892.167 0 .3-.178.3-.4 0-.25.133-.4.356-.4.195 0 .507-.157.693-.35.825-.856 1.137-1.082 1.328-.964.776.479-3.957 6.176-7.96 9.582-.926.788-2.231 1.916-2.9 2.508-.669.592-1.532 1.283-1.917 1.536a107.46 107.46 0 0 0-2.4 1.674 79.45 79.45 0 0 1-3.323 2.228c-.893.558-1.828 1.292-2.079 1.631l-.456.617.705-.115c.727-.118 3.051-1.477 6.353-3.717 5.814-3.943 11.427-9.256 16.724-15.83 3.421-4.246 8.273-12.849 9.892-17.537.31-.901.648-1.801.751-2 1.075-2.096 4.079-12.479 4.432-15.323.12-.968.304-1.984.408-2.258.104-.273.278-1.669.387-3.1.255-3.354.555-4.021.89-1.982.157.956-.221 5.805-.577 7.4-.16.715-.388 1.885-.507 2.6-.511 3.068-.786 4.412-1.271 6.227-.603 2.255-1.657 5.616-2.03 6.473l-1.305 3c-1.073 2.466-4.285 8.853-5.079 10.1-2.955 4.64-6.294 9.381-7.165 10.171-.192.175-.35.431-.35.568 0 .309-4.765 5.134-5.25 5.317-.192.072-.35.269-.35.438 0 .168-.13.306-.288.306-.323 0-.615.364-.436.543.134.133 1.743-.915 1.984-1.292.224-.352.94-.314.94.049a.3.3 0 0 0 .3.3c.165 0 .3-.138.3-.306 0-.169.158-.363.35-.431.193-.069.78-.584 1.305-1.144l1.65-1.754c.382-.405.698-.81.701-.9.003-.091.281-.435.617-.765 1.466-1.436 6.608-8.467 7.533-10.3.138-.275.469-.86.734-1.3.265-.44.622-1.07.792-1.4.171-.33.395-.735.499-.9.294-.467 2.516-5.184 2.968-6.3 1.854-4.584 2.177-5.567 2.757-8.4.158-.77.38-1.973.493-2.673.113-.7.269-1.375.346-1.5.078-.125.25-.857.382-1.627.133-.77.432-2.12.666-3 1.283-4.835 1.877-15.863 1.132-21.027a73.132 73.132 0 0 1-.429-3.573c-.401-4.869-2.857-15.011-4.59-18.954-.156-.355-.52-1.26-.808-2.011-.477-1.245-2.095-4.472-3.376-6.735-.28-.495-.658-1.17-.841-1.5-.439-.794-2.623-4.023-3.991-5.9a153.207 153.207 0 0 1-1.438-2c-3.95-5.738-13.397-14.496-19.452-18.032a30.615 30.615 0 0 1-2.165-1.423 21.834 21.834 0 0 0-2-1.288 69.768 69.768 0 0 1-1.735-.979c-.876-.517-1.317-.729-5.6-2.689-.44-.201-1.16-.497-1.6-.656a72.85 72.85 0 0 1-1.9-.734c-.605-.243-1.46-.532-1.9-.642a9.563 9.563 0 0 1-1.4-.478 6.549 6.549 0 0 0-1.3-.407 5.568 5.568 0 0 1-1.244-.403c-.299-.15-1.064-.354-1.7-.453-.636-.099-1.516-.319-1.956-.489-.44-.17-1.321-.313-1.957-.318-.695-.005-1.346-.133-1.63-.319-.262-.172-1.128-.358-1.943-.419-.809-.059-1.775-.245-2.147-.412-1.299-.582-10.78-.821-18.223-.458M58.477 43.508c-2.904 1.471.537 7.572 5.636 9.992 4.875 2.313 12.08 3.803 22.787 4.71 2.388.203 8.53.069 10.3-.223.605-.1 2.225-.274 3.6-.387 1.375-.112 3.13-.332 3.9-.488.77-.157 1.935-.344 2.588-.417.653-.073 2.363-.404 3.8-.735 1.437-.331 3.152-.721 3.812-.867.66-.145 1.83-.458 2.6-.696.77-.237 1.985-.598 2.7-.802 1.34-.383 2.688-.851 4.6-1.596.605-.235 1.55-.589 2.1-.786 3.393-1.216 10.774-5.491 11.023-6.384.232-.833-.687-1.023-2.223-.459-.33.121-1.41.455-2.4.742s-2.115.645-2.5.796c-1.329.521-5.277 1.395-9.004 1.993-.937.151-1.927.357-2.2.459-.273.102-1.351.249-2.396.326a64.212 64.212 0 0 0-3.846.427c-6.193.911-22.776.848-28.554-.109-.605-.1-1.73-.238-2.5-.306a30.002 30.002 0 0 1-2.484-.332 89.531 89.531 0 0 0-2.8-.468c-4.287-.649-8.068-1.589-11.616-2.889-4.791-1.754-5.934-2.002-6.923-1.501M270.062 57.6c-1.514.316-2.98 1.503-3.83 3.1l-.532 1-.052 46.238-.051 46.238.428 1.146c1.743 4.657 7.577 5.148 10.223.859.643-1.042.752-2.749.752-11.801 0-4.921.055-9.09.121-9.264.366-.952 1.042-.396 9.105 7.484.845.825 2.871 2.767 4.505 4.315 1.633 1.549 4.845 4.608 7.137 6.798 4.543 4.34 5.321 4.949 6.765 5.295 4.193 1.006 7.913-3.051 6.682-7.286-.418-1.438.004-1.009-17.108-17.418-5.684-5.451-8.407-8.21-8.407-8.517 0-.175 1.813-2.066 4.028-4.203 2.215-2.136 5.003-4.829 6.194-5.984a562.177 562.177 0 0 1 4.607-4.4c10.106-9.525 10.613-10.108 10.9-12.529.525-4.43-4.751-7.671-8.58-5.271-.644.404-6.118 5.504-12.933 12.05-12.236 11.752-12.635 12.089-12.914 10.9-.058-.247-.127-12.69-.154-27.65l-.048-27.2-.491-.789c-1.578-2.54-3.82-3.639-6.347-3.111M89.8 61.584c-.275.093-.77.315-1.1.492-.33.177-.671.322-.758.323-1.06.008-4.08 3.314-5.21 5.701-.312.66-.652 1.36-.755 1.555-.592 1.124-1.901 6.136-2.161 8.277a75.508 75.508 0 0 1-.392 2.768c-.397 2.382-.624 7.697-.624 14.644 0 4.785-.072 7.216-.221 7.495-.255.477-2.935.4-5.279-.151-5.202-1.223-9.383 2.784-6.377 6.111 1.28 1.417 2.228 1.664 6.677 1.744 4.593.082 5.127.147 5.403.662.225.421.687 4.144.892 7.195.07 1.045.25 2.62.399 3.5.149.88.327 2.185.396 2.9.122 1.277.4 2.926 1.029 6.1.174.88.394 2.05.489 2.6.094.55.303 1.495.464 2.1.161.605.487 1.865.726 2.8 1.926 7.559 3.543 11.335 4.407 10.294.265-.32.141-2.8-.224-4.463-.105-.478-.322-2.35-.481-4.16-.159-1.81-.337-3.369-.396-3.464-.058-.095-.248-2.498-.421-5.34-.173-2.842-.39-6.202-.483-7.467-.307-4.17-.246-12.913.093-13.194.161-.134.987-.329 1.835-.434.848-.106 1.598-.226 1.665-.268.067-.041 1.244-.176 2.615-.298 1.371-.122 2.769-.311 3.107-.418.338-.108 1.373-.329 2.3-.492 3.337-.587 6.205-1.34 9.985-2.621 2.349-.795 6.817-3.155 6.758-3.568-.074-.52-1.097-.501-3.316.061-.848.214-1.992.449-2.542.522-.55.073-1.63.254-2.4.404a33.7 33.7 0 0 1-2.9.402c-.825.071-2.58.267-3.9.435-1.531.194-4.238.313-7.475.327l-5.076.023-.389-.481c-.326-.403-.375-.707-.3-1.89.386-6.173.584-8.804.753-10.01.108-.77.332-2.696.498-4.28.166-1.583.351-2.958.411-3.055.059-.097.234-1.096.388-2.22.154-1.125.37-2.405.48-2.845.109-.44.426-1.79.704-3 .458-1.995 1.096-4.394 1.516-5.7.224-.696.777-2.084 1.99-4.999 1.101-2.647 1.222-3.665.518-4.369-.359-.358-2.519-.52-3.318-.248m83.472 27.283c.165 1.372.135 7.794-.041 8.933-.17 1.095-1.036-5.548-1.029-7.9.006-2.486.803-3.255 1.07-1.033M211.7 93.13c-4.011.728-6.966 1.734-9.952 3.389-1.074.594-2.003 1.081-2.064 1.081-.448 0-5.553 4.078-6.79 5.423-2.264 2.464-5.694 7.389-5.694 8.176 0 .081-.161.362-.358.624-2.953 3.933-4.131 15.12-2.346 22.277 1.898 7.616 8.589 16.608 14.927 20.062l2.177 1.191c2.025 1.11 2.693 1.447 2.867 1.447.095 0 .456.13.803.29 5.232 2.404 14.693 2.715 21.03.69 5.308-1.696 12.158-6.181 15.031-9.841.533-.68 1.345-1.66 1.805-2.178 6.385-7.2 8.498-20.527 4.885-30.822-1.014-2.89-4.448-8.673-6.019-10.139a36.486 36.486 0 0 1-.989-1.169c-.485-.587-1.643-1.712-2.574-2.5-4.826-4.081-9.874-6.661-14.939-7.635a77.19 77.19 0 0 1-2.3-.478c-1.327-.307-7.598-.234-9.5.112m136.7-.275c-.055.057-1 .252-2.1.433-5.217.858-10.91 3.555-15.303 7.25-11.153 9.381-15.341 25.484-9.772 37.575.206.447.375.868.375.935 0 .067.54 1.073 1.2 2.236.66 1.162 1.2 2.174 1.2 2.247 0 .798 4.68 5.965 7.342 8.106 2.377 1.911 2.853 2.236 4.858 3.316.605.326 1.429.779 1.832 1.006 7.219 4.079 18.954 4.21 27.724.311.581-.259 1.091-.47 1.134-.47 1.139 0 7.255-4.644 8.977-6.817 2.885-3.64.734-8.738-3.849-9.122-2.079-.174-2.554-.007-5.045 1.777-3.532 2.53-3.987 2.839-5.323 3.619-8.653 5.055-21.821 1.624-27.505-7.167-2.175-3.364-3.643-7.673-2.961-8.69.177-.263 3.25-.312 24.959-.4l24.757-.1.9-.453c1.707-.861 2.671-2.026 3.02-3.652.398-1.857-.391-7.903-1.313-10.063a82.692 82.692 0 0 1-.893-2.282c-.342-.907-.777-1.917-.968-2.244-2.135-3.666-2.737-4.51-4.819-6.76-2.218-2.398-5.631-5.205-7.527-6.19-3.911-2.032-7.836-3.414-11.3-3.98-1.705-.278-9.412-.616-9.6-.421M219.3 104.6c1.1.116 2.27.306 2.6.423.33.116 1.149.367 1.82.559 2.754.785 6.74 3.48 9.109 6.159 13.039 14.739 1.057 37.9-18.454 35.673-16.578-1.892-24.841-20.786-14.965-34.217 2.358-3.206 7.398-6.953 10.192-7.576a11.758 11.758 0 0 0 1.63-.506c.401-.167 1.647-.39 2.768-.496 1.122-.106 2.097-.249 2.167-.32.071-.07.354-.078.631-.018.276.059 1.402.203 2.502.319m135.8 0c5.712.64 11.566 4.201 14.78 8.991 1.073 1.6 1.837 3.372 1.569 3.64-.094.094-8.851.148-19.46.12L332.7 117.3l-.063-.442c-.035-.244.188-.874.495-1.4 3.589-6.159 9.48-10.133 16.099-10.861 1.137-.125 2.112-.274 2.168-.332.055-.057.506-.05 1.001.015.495.065 1.71.209 2.7.32m-203.3 46.9a.3.3 0 0 1-.3.3c-.312 0-.397-.237-.167-.467.23-.23.467-.145.467.167m-4.4 2.6c0 .165.079.3.176.3.096 0 .287-.135.424-.3.208-.251.179-.3-.176-.3-.244 0-.424.128-.424.3m-.8.805c0 .168-.216.387-.479.487-.263.1-.511.257-.55.349-.039.092-.58.502-1.203.911-.622.41-1.747 1.24-2.5 1.845-1.698 1.366-1.605 1.296-2.568 1.931-.946.624-4.343 2.588-5.2 3.007a85.38 85.38 0 0 0-2.1 1.103c-4.32 2.333-5.85 3.017-8.9 3.979-.99.312-2.025.683-2.3.824-.275.141-.635.257-.8.259-.165.001-.593.18-.951.399-.358.218-1.033.456-1.5.529-.467.073-1.103.344-1.414.602-.443.368-.805.47-1.669.47-.816 0-1.241.109-1.634.418-.464.365-.748.41-2.232.35-1.62-.065-1.703-.048-1.762.369-.053.374-.227.455-1.2.557-3.12.329-3.464 1.014-.438.869 1.006-.048 1.891-.182 1.965-.296.074-.115.94-.273 1.923-.352.984-.078 1.974-.243 2.2-.367.227-.123 1.087-.335 1.912-.47 1.36-.223 2.381-.498 4.1-1.107.33-.116 1.05-.333 1.6-.48.974-.262 2.464-.799 4.7-1.693a101.07 101.07 0 0 1 1.853-.719 10.7 10.7 0 0 0 1.1-.471c.191-.106.977-.46 1.747-.787 1.971-.837 4.992-2.448 7.1-3.786 1.751-1.111 3.891-2.519 4-2.632.055-.056.55-.413 1.1-.792.55-.379 1.072-.807 1.16-.95.088-.144.26-.261.383-.261s.366-.133.54-.296c.855-.8 1.492-1.304 1.646-1.304.094 0 .171-.18.171-.4 0-.22-.09-.4-.2-.4-.11 0-.2-.096-.2-.213 0-.118.168-.161.373-.096.306.097.357.034.284-.348-.052-.275.041-.575.227-.73.399-.331.406-.613.016-.613-.165 0-.3.137-.3.305" fill="#152745" fill-rule="evenodd"/></svg>