<svg width="400" height="282.713" xmlns="http://www.w3.org/2000/svg"><path d="M194.484 14.758c-3.662.237-9.499.873-12.73 1.389-.934.149-3.098.395-4.809.547-1.712.151-3.621.4-4.243.553-.623.153-1.768.281-2.546.285-.778.004-2.433.188-3.678.409-6.145 1.093-7.504 1.295-8.717 1.295-.723 0-2.303.183-3.512.407-1.209.223-3.089.551-4.178.727-1.089.177-3.063.509-4.385.738a258.144 258.144 0 0 1-10.042 1.512c-1.245.16-3.282.478-4.527.708l-4.602.85c-1.287.238-2.705.433-3.152.433-.447 0-1.75.178-2.894.396-2.017.384-4.619.823-10.356 1.745-4.846.779-7.801 1.292-9.689 1.681-1.662.343-3.417.646-9.052 1.566l-4.243.694c-2.355.387-5.383.965-7.921 1.514-.7.151-2.546.487-4.102.746a154.702 154.702 0 0 0-8.828 1.727c-.965.219-2.119.398-2.565.398-.445 0-1.438.172-2.205.382-1.442.394-3.987.96-7.901 1.755-1.245.252-2.772.621-3.395.818-.622.198-2.086.648-3.253.999-1.167.352-2.667.816-3.334 1.03-.666.215-1.402.391-1.633.391-.751 0-.974 1.365-.974 5.975 0 2.488-.123 5.376-.274 6.417a334.06 334.06 0 0 0-.567 4.156 65.833 65.833 0 0 1-.707 4.244c-.947 4.509-1.217 5.719-1.544 6.93-.19.701-.536 2.037-.771 2.971a134.94 134.94 0 0 1-1.645 5.94c-.19.623-.569 1.896-.843 2.829a77.83 77.83 0 0 1-.892 2.838c-.217.628-.395 1.309-.395 1.514 0 .204-.178.773-.396 1.263-.219.49-.721 1.91-1.116 3.155-.833 2.621-1.306 4.013-1.634 4.809-.473 1.148-1.148 3.132-1.299 3.819-.086.389-.254.834-.372.99-.119.155-.346.728-.506 1.273-.159.544-.562 1.69-.896 2.546-.334.855-.925 2.51-1.313 3.677-.389 1.167-.826 2.243-.972 2.391a1.082 1.082 0 0 0-.265.664c0 .218-.18.797-.401 1.287-.221.49-.862 2.101-1.425 3.579-.563 1.478-1.143 2.942-1.29 3.253-.146.311-.471 1.202-.722 1.98a29.238 29.238 0 0 1-.972 2.546c-.283.623-1.363 3.169-2.4 5.658-2.06 4.947-2.289 5.48-3.341 7.779-.392.856-.985 2.193-1.319 2.971a209.38 209.38 0 0 1-.86 1.98c-1.182 2.655-1.414 3.352-1.414 4.255 0 .568.185 1.37.412 1.783.226.413.748 1.515 1.159 2.448.41.934 1.04 2.334 1.399 3.112a93.68 93.68 0 0 1 1.125 2.546c.26.622.645 1.514.855 1.98.21.467 1.167 2.758 2.126 5.092.96 2.334 1.904 4.562 2.098 4.951.195.389.65 1.534 1.011 2.546.361 1.011.746 1.966.856 2.121.109.156.474 1.111.811 2.122.336 1.011.73 2.093.875 2.405.146.311.723 1.775 1.282 3.253 1.612 4.256 1.861 4.897 2.257 5.799.206.467.44 1.103.521 1.414.19.725.975 2.943 1.301 3.678.139.311.318.82.398 1.131.158.611.905 2.76 1.278 3.678.127.311.515 1.457.864 2.546a82.4 82.4 0 0 0 .848 2.546c.269.705 1.206 3.694 1.864 5.94.274.934.658 2.143.855 2.688.196.544.576 1.817.843 2.829.267 1.011.654 2.411.859 3.111.206.701.581 2.101.835 3.112.254 1.011.636 2.475.85 3.253 1.512 5.517 2.692 14.031 2.861 20.651.178 6.97-.154 6.301 3.644 7.358.934.26 2.207.649 2.829.864.999.345 3.562.961 9.336 2.241.933.206 2.906.65 4.384.986 1.478.335 3.388.719 4.244.853 1.497.234 2.826.492 6.011 1.167 1.866.395 5.378.997 8.112 1.391 1.155.166 2.204.366 2.329.444.126.078 1.345.321 2.709.541 1.363.221 3.498.601 4.742.845 1.245.244 3.409.629 4.809.855 1.401.226 3.565.604 4.809.841 1.245.237 3.282.563 4.527.724 1.244.162 2.861.425 3.592.586.731.161 2.004.397 2.829.526 1.553.242 3.651.608 7.299 1.274 3.264.595 6.181 1.051 8.203 1.28 1.012.115 2.412.343 3.112.508.7.164 2.737.504 4.526.754a403.6 403.6 0 0 1 5.799.859c1.401.221 4.01.606 5.799.855 1.79.249 4.336.632 5.658.852 1.323.219 3.359.53 4.526.691 1.167.16 3.395.482 4.951.714 1.556.232 3.783.549 4.95.704 2.265.3 6.473.928 10.588 1.58 1.388.22 3.234.404 4.101.41.868.005 2.405.192 3.416.414 1.011.223 2.811.409 4 .415 1.188.005 3.225.212 4.526.46 3.27.622 12.362.629 17.924.015 7.704-.852 11.571-1.344 13.72-1.747a47.842 47.842 0 0 1 4.102-.558c1.089-.087 2.68-.28 3.536-.427 3.453-.593 8.637-1.34 13.861-1.996 1.323-.166 2.85-.417 3.395-.557.544-.14 3.154-.571 5.799-.957 2.645-.386 5.509-.832 6.365-.991.855-.158 3.147-.499 5.092-.756 1.944-.257 4.254-.643 5.132-.857.879-.214 2.18-.389 2.892-.389.712 0 2.221-.183 3.354-.406 3.266-.645 5.614-1.056 7.292-1.276a68.693 68.693 0 0 0 3.395-.562c5.296-1.029 9.123-1.697 13.083-2.282 4.139-.613 5.764-.895 6.577-1.144.467-.143 1.74-.395 2.829-.561 4.923-.75 7.154-1.124 8.204-1.376.622-.149 2.404-.483 3.96-.742 1.556-.258 3.393-.65 4.082-.87.689-.219 1.58-.397 1.98-.395.677.003 2.226-.286 6.809-1.273a49.94 49.94 0 0 1 3.112-.564c.7-.092 1.782-.283 2.405-.424.622-.141 2.404-.534 3.96-.872 2.646-.576 4.809-1.147 8.204-2.166.778-.234 2.046-.602 2.818-.818 2.089-.584 2.025-.367 2.397-8.031.347-7.138.494-8.614 1.269-12.73.976-5.187 1.893-8.933 3.706-15.134.227-.778.552-2.018.722-2.756.169-.738.425-1.413.568-1.502.143-.088.26-.408.26-.71 0-.496 1.707-6.084 2.284-7.479.129-.312.746-2.094 1.371-3.961 1.75-5.225 1.789-5.338 2.037-5.94.359-.873 1.117-3.047 1.282-3.678.082-.311.314-.947.516-1.414 1.04-2.4 1.279-3.015 1.279-3.291 0-.166.174-.702.386-1.193.212-.49.606-1.464.875-2.164.268-.7.656-1.655.861-2.122.326-.744 1.535-3.829 2.882-7.355.237-.622.609-1.469.826-1.882.216-.413.393-.89.393-1.06 0-.17.382-1.118.849-2.106.467-.987.849-1.876.849-1.974 0-.099.445-1.131.99-2.294.544-1.163.99-2.192.99-2.286 0-.155.746-1.877 1.836-4.239.215-.467.718-1.581 1.116-2.476.399-.894 1.065-2.358 1.481-3.253.957-2.062.963-3.668.021-5.728a1437.31 1437.31 0 0 0-1.626-3.536 347.19 347.19 0 0 1-1.604-3.536l-.942-2.122a175.513 175.513 0 0 1-1.823-4.385c-.281-.7-.676-1.655-.878-2.121-.203-.467-.83-1.995-1.395-3.395-1.094-2.713-1.404-3.463-1.989-4.809-.319-.734-1.131-2.808-2.882-7.355a45.416 45.416 0 0 0-.688-1.697c-.14-.311-.369-.948-.511-1.415-.142-.467-.533-1.549-.869-2.404-.336-.856-.717-1.938-.845-2.405-.129-.467-.509-1.549-.846-2.404-.336-.856-.727-1.938-.869-2.405a11.982 11.982 0 0 0-.53-1.414c-.15-.311-.933-2.603-1.739-5.092-.807-2.49-1.641-4.928-1.853-5.418-.213-.49-.387-1.059-.387-1.263 0-.205-.177-.886-.394-1.513-.365-1.056-.724-2.248-1.791-5.95a72.15 72.15 0 0 0-.69-2.264c-.155-.466-.451-1.548-.658-2.404-.207-.856-.584-2.383-.837-3.395-.722-2.884-1.851-8.52-2.41-12.031-.124-.783-.376-4.411-.559-8.063-.375-7.475-.43-7.911-1.001-7.911-.225 0-.955-.176-1.622-.39-3.291-1.059-4.419-1.382-5.593-1.601-2.033-.378-3.994-.825-5.52-1.256-.778-.22-2.496-.609-3.819-.865a163.33 163.33 0 0 1-4.102-.85c-.933-.211-2.843-.588-4.243-.838-2.926-.521-7.56-1.385-12.305-2.294a239.284 239.284 0 0 0-4.527-.81 164.93 164.93 0 0 1-4.526-.832c-3.984-.807-4.952-.977-8.203-1.437-1.79-.253-4.081-.634-5.092-.846a142.43 142.43 0 0 0-4.668-.86 163.602 163.602 0 0 1-4.668-.852 38.462 38.462 0 0 0-3.677-.536c-1.011-.088-2.475-.28-3.253-.428a415.894 415.894 0 0 0-8.062-1.454 828.902 828.902 0 0 1-4.244-.716 177.664 177.664 0 0 0-5.375-.809c-1.633-.218-3.224-.461-3.536-.541-.917-.233-6.239-1.045-8.583-1.31-2.959-.334-7.698-1.102-8.016-1.299-.143-.088-1.304-.269-2.58-.401-5.711-.592-8.122-.897-10.106-1.279-1.17-.226-2.57-.411-3.111-.412a8.965 8.965 0 0 1-1.974-.275c-1.106-.305-3.937-.676-9.618-1.259-2.101-.216-4.583-.528-5.517-.694-2.059-.366-8.848-.901-10.608-.835-.7.026-2.928.154-4.95.284m12.305 7.838c2.101.171 4.392.442 5.092.601 1.212.276 2.411.426 8.911 1.115 2.586.273 5.425.695 9.874 1.465a43.24 43.24 0 0 0 3.678.423c1.104.074 3.152.322 4.553.55 1.4.228 3.691.599 5.092.824 1.4.226 3.691.599 5.092.828 1.4.229 3.309.49 4.243.579.933.09 2.334.283 3.112.43 3.951.747 5.031.929 7.638 1.29 1.555.216 4.101.596 5.657.845s4.038.629 5.517.843c2.615.379 3.806.585 8.203 1.416 2.315.437 5.645.999 10.043 1.694 4.202.664 7.776 1.295 9.052 1.598.622.148 2.404.449 3.96.669 1.556.221 3.848.607 5.092.859 1.245.253 3.282.632 4.526.843 1.245.211 3.218.583 4.385.827 1.167.243 2.949.576 3.961.739 1.861.3 4.457.798 8.062 1.548 1.089.226 3.37.673 5.068.992 1.699.32 3.199.649 3.334.733.135.083.973.265 1.862.404.89.139 2.508.518 3.597.843 1.089.325 2.358.682 2.819.795.976.238 1.214.847 1.255 3.217.062 3.573 1.076 11.49 1.885 14.715.223.893.406 1.9.406 2.239 0 .338.183 1.263.406 2.055.223.791.612 2.267.865 3.278.253 1.011.637 2.475.854 3.253.216.778.602 2.178.857 3.112.255.933.631 2.206.836 2.829.205.622.589 1.895.854 2.829.59 2.077 1.563 5.175 1.866 5.94.124.311.348 1.011.498 1.556.29 1.05.817 2.6 1.202 3.536.268.65.778 2.109 1.927 5.516a194.511 194.511 0 0 0 1.707 4.809 177.018 177.018 0 0 1 1.182 3.254c.159.466.398 1.103.533 1.414.254.588 1.145 2.852 1.893 4.809.238.622.597 1.513.798 1.98a171.8 171.8 0 0 1 1.238 3.041l1.744 4.385a155.87 155.87 0 0 0 1.239 3.041c.201.467.908 2.122 1.569 3.678a325.498 325.498 0 0 0 1.711 3.96c.28.622 1.286 2.97 2.238 5.217 1.943 4.591 1.935 3.827.085 7.937a151.666 151.666 0 0 0-1.188 2.687c-.127.312-.63 1.423-1.116 2.47-.486 1.047-.884 1.979-.884 2.072 0 .154-1.498 3.835-2.412 5.925-.204.467-.773 1.867-1.266 3.112-1.06 2.681-1.603 3.957-2.146 5.044-.22.441-.4 1.017-.4 1.281s-.171.731-.38 1.038a4.724 4.724 0 0 0-.542 1.124c-.089.311-.411 1.202-.716 1.98a323.816 323.816 0 0 0-5.01 13.578 116.694 116.694 0 0 1-1.283 3.536c-.332.856-.713 1.938-.847 2.405-.445 1.558-2.014 6.218-2.241 6.657-.123.238-.316.875-.429 1.414-.113.54-.564 2.127-1.002 3.527a152.2 152.2 0 0 0-1.259 4.243c-.254.934-.64 2.334-.856 3.112-.217.778-.608 2.242-.868 3.253a76.536 76.536 0 0 1-.865 3.092c-.215.689-.392 1.55-.392 1.914 0 .363-.181 1.391-.402 2.283-.906 3.655-1.861 10.833-1.861 13.982 0 2.428-.258 3.635-.818 3.831-.25.087-.989.394-1.642.683-.652.288-1.456.524-1.785.524-.33 0-1.196.179-1.925.398-1.266.381-2.558.661-7.974 1.726-1.323.26-3.169.645-4.102.856-.934.211-2.843.584-4.243.829-1.401.246-4.201.777-6.224 1.18-2.022.404-4.759.905-6.082 1.115-1.322.21-3.359.581-4.526.825-1.167.244-3.331.623-4.809.842-1.478.219-3.388.534-4.243.699-4.585.883-6.073 1.145-8.911 1.569a266.18 266.18 0 0 0-10.043 1.704c-1.167.219-3.649.604-5.516.855s-4.286.632-5.375.847c-2.114.417-6.099 1.071-9.335 1.533-1.089.156-3.19.486-4.668.735-2.868.482-6.482 1.004-10.608 1.531-1.4.179-3.691.506-5.092.726-1.4.221-2.991.452-3.536.514-1.224.14-4.671.646-8.132 1.194-7.777 1.23-7.809 1.235-15.347 2.109-13.598 1.577-19.04 1.656-27.944.404-1.599-.225-3.573-.409-4.386-.409-.814 0-1.924-.134-2.467-.297-.544-.164-2.452-.407-4.241-.54-1.79-.133-4.017-.378-4.951-.546l-4.102-.734c-1.322-.236-2.914-.429-3.536-.427-.622.001-2.213-.187-3.536-.417-2.189-.38-3.895-.654-9.76-1.568-2.326-.363-6.5-.983-10.466-1.555-5.021-.724-8.165-1.208-9.901-1.522-2.35-.426-6.235-1.061-9.76-1.594a139.91 139.91 0 0 1-4.95-.842c-1.089-.215-3.444-.596-5.234-.847-1.789-.251-4.144-.637-5.233-.857a128.518 128.518 0 0 0-4.951-.854 131.173 131.173 0 0 1-4.95-.852c-2.812-.566-6.505-1.227-8.487-1.519-2.596-.382-9.028-1.518-12.164-2.147a546.007 546.007 0 0 0-4.384-.854 97.792 97.792 0 0 1-3.961-.837c-2.79-.683-5.786-1.283-6.385-1.28-.322.002-1.15-.17-1.839-.383-.689-.214-2.271-.607-3.516-.875-6.028-1.299-6.354-1.516-6.362-4.254-.003-1.089-.196-3.242-.428-4.785-.233-1.542-.422-3.261-.421-3.819.002-.558-.198-1.905-.442-2.995-1.104-4.91-1.262-5.69-1.26-6.198.001-.298-.18-1.189-.403-1.98a137.31 137.31 0 0 1-.865-3.278c-.431-1.724-.829-3.172-1.711-6.224-1.294-4.478-1.621-5.593-1.825-6.223-.127-.389-.702-2.235-1.279-4.102-.578-1.867-1.227-3.813-1.443-4.324-.216-.511-.392-1.154-.392-1.428 0-.275-.116-.621-.257-.769-.141-.148-.389-.714-.55-1.259-.418-1.407-1.986-5.974-2.283-6.647-.137-.312-.537-1.394-.889-2.405s-.725-1.966-.829-2.122c-.105-.155-.474-1.143-.821-2.194s-.813-2.261-1.035-2.687c-.223-.427-.406-.992-.407-1.255-.001-.263-.115-.548-.253-.633-.138-.086-.334-.507-.434-.936-.1-.43-.357-1.163-.571-1.63a44.804 44.804 0 0 1-.875-2.121 67.005 67.005 0 0 0-.851-2.122 168.41 168.41 0 0 1-1.261-3.112 140.85 140.85 0 0 0-1.265-3.112 90.994 90.994 0 0 1-.982-2.404c-.771-1.961-.883-2.217-2.115-4.858-.557-1.193-1.012-2.241-1.012-2.327 0-.151-1.653-3.835-2.344-5.224-.554-1.114-.324-2.614.753-4.905.564-1.198 1.025-2.24 1.025-2.314 0-.074.39-1.003.866-2.064 1.348-3.001 1.66-3.73 3.669-8.577a552.716 552.716 0 0 1 1.833-4.385c.203-.466.584-1.421.848-2.121.263-.7.657-1.691.875-2.202.217-.511.395-1.128.395-1.371 0-.243.178-.78.394-1.193.217-.413.586-1.26.821-1.882.47-1.243 1.513-3.919 1.874-4.809.127-.311.513-1.33.859-2.263.345-.934.727-1.952.848-2.263.615-1.579 1.388-3.742 1.517-4.243.08-.312.418-1.266.749-2.122.332-.856.902-2.447 1.267-3.536.364-1.089.793-2.299.953-2.688.159-.389.76-2.234 1.335-4.101l1.482-4.809c.24-.778.542-1.669.67-1.981.129-.311.357-1.075.507-1.697.15-.622.543-2.023.872-3.112.33-1.089.661-2.298.736-2.687.132-.683.42-1.766 1.362-5.117.245-.869.445-1.904.445-2.298 0-.395.191-1.259.424-1.92.233-.662.424-1.519.424-1.905 0-.386.185-1.547.411-2.581.556-2.541 1.061-6.856 1.262-10.78l.166-3.242.849-.205c.466-.112 1.799-.531 2.96-.93s2.36-.725 2.663-.725c.302 0 1.198-.183 1.99-.407 1.415-.4 3.325-.779 8.653-1.719 1.478-.261 3.514-.647 4.526-.859 3.685-.772 8.839-1.723 11.457-2.115 1.089-.163 2.934-.487 4.101-.719 5.212-1.039 6.246-1.234 8.911-1.677 1.556-.258 3.72-.64 4.809-.849 1.089-.209 3.317-.589 4.951-.845a459.83 459.83 0 0 0 10.184-1.7c2.65-.481 10.619-1.769 14.003-2.264 5.034-.736 6.818-1.028 8.628-1.412 1.011-.214 3.366-.598 5.233-.852 1.867-.254 4.477-.638 5.799-.852 3.039-.493 7.347-1.107 11.881-1.695 1.945-.252 4.618-.635 5.941-.85 1.322-.216 3.486-.534 4.809-.707 1.322-.173 3.868-.51 5.658-.748 5.63-.752 9.629-1.193 13.72-1.513 2.178-.17 4.851-.418 5.94-.55 2.28-.277 5.468-.209 10.891.233m-13.012 8.937c-2.412.199-5.595.506-7.073.684-1.478.177-4.469.516-6.647.754-2.179.237-5.17.612-6.648.834a366.2 366.2 0 0 1-6.224.855c-3.296.423-5.646.786-10.184 1.575-1.011.176-3.239.493-4.95.704-4.799.593-12.414 1.731-16.69 2.495-4.299.768-7.645 1.326-9.618 1.603-3.198.449-7.188 1.089-9.619 1.542-1.244.232-2.581.421-2.97.419-.389-.003-1.534.182-2.546.41-3.983.898-6.119 1.295-6.93 1.288-.467-.004-1.74.177-2.829.403-1.089.226-3.254.613-4.809.862-1.556.248-3.529.585-4.385.749a313.988 313.988 0 0 1-8.062 1.4c-.934.147-1.889.34-2.122.429-.233.09-1.379.351-2.546.581-4.23.833-6.124 1.2-8.345 1.618-3.645.684-6.415 1.263-7.779 1.625-.701.185-2.101.542-3.112.792l-1.839.455-.176 1.979c-.317 3.561-.806 7.312-1.255 9.616-.759 3.896-1.294 6.448-1.707 8.133-.863 3.527-1.296 5.222-1.68 6.577-.22.778-.612 2.178-.872 3.112-.259.933-.822 2.779-1.25 4.102a564.006 564.006 0 0 0-1.828 5.799c-.576 1.867-1.159 3.649-1.295 3.96-.351.804-1.107 2.961-1.389 3.961-.131.466-.514 1.548-.851 2.404-.337.856-.742 2.002-.9 2.546-.158.545-.402 1.111-.543 1.259-.141.148-.257.482-.257.742 0 .413-.223 1.014-1.409 3.798a9.315 9.315 0 0 0-.383 1.132c-.183.725-2.621 7.073-3.167 8.246-.229.491-.416 1.021-.416 1.18 0 .158-.18.648-.401 1.088a27.934 27.934 0 0 0-.885 2.074c-.265.7-.647 1.655-.848 2.122-.2.467-.778 1.867-1.282 3.112a146.1 146.1 0 0 1-1.721 4.05c-.442.984-.803 1.858-.803 1.943 0 .084-.423 1.062-.94 2.172-.516 1.11-1.24 2.75-1.607 3.645l-.669 1.627.659 1.626a183.798 183.798 0 0 0 1.991 4.739c.139.311.521 1.202.849 1.98.686 1.627.875 2.07 1.629 3.819.302.7.775 1.846 1.051 2.546.277.7.666 1.655.865 2.121.2.467.588 1.422.863 2.122.276.7.716 1.782.978 2.405.263.622.713 1.768 1 2.546.287.777.686 1.732.885 2.121.2.389.364.923.365 1.186.001.263.129.557.285.653.155.096.283.39.284.653.001.263.188.835.415 1.271.227.435.535 1.199.683 1.697.149.498.544 1.605.879 2.461.336.856.718 1.874.85 2.263.133.389.516 1.407.852 2.263.336.856.717 1.938.845 2.405.225.817.666 2.129 1.166 3.466.396 1.061 2.995 8.901 3.351 10.112l.71 2.405c.206.7.706 2.418 1.11 3.819.403 1.4.921 3.182 1.15 3.96.229.778.62 2.306.869 3.395s.629 2.68.844 3.536c.401 1.595.995 4.49 1.539 7.496.168.934.481 3.352.694 5.375.597 5.67.874 6.365 2.543 6.365.349 0 1.198.174 1.886.386 2.047.631 3.992 1.098 5.496 1.32.778.115 2.179.364 3.112.553.934.189 2.652.532 3.819.762 1.167.229 2.695.55 3.395.712 1.518.351 4.663.963 7.779 1.514 1.245.22 3.282.592 4.526.827 1.245.234 3.154.557 4.244.717 1.089.159 2.489.419 3.111.576.623.157 2.023.411 3.112.563 1.846.258 4.009.639 7.779 1.371.856.167 2.829.499 4.385.738 1.556.24 3.975.622 5.375.848 1.4.226 3.946.614 5.658.862 1.711.249 3.875.624 4.809.834.933.21 3.034.583 4.667.827 1.634.245 3.862.585 4.951.757 2.08.328 5.267.817 9.759 1.498 1.478.224 3.515.538 4.526.698 1.012.16 3.494.494 5.517.743 2.022.25 4.123.569 4.667.711.545.142 1.691.334 2.546.426 2.177.235 7.557.947 10.75 1.423 1.478.22 4.724.6 7.214.843 2.489.243 5.735.64 7.213.881 3.702.604 12.426.825 16.125.408 1.633-.185 4.497-.506 6.365-.715 7.292-.816 9.109-1.064 10.626-1.448.866-.219 2.203-.403 2.971-.409.767-.005 2.223-.192 3.234-.414 1.012-.223 2.358-.409 2.991-.415.634-.005 2.289-.19 3.678-.41 2.352-.372 5.925-.914 10.304-1.563 1.012-.15 2.985-.477 4.385-.728s3.692-.624 5.092-.829c1.4-.205 3.437-.508 4.526-.674 1.089-.165 3.444-.5 5.234-.744 1.789-.244 4.144-.627 5.233-.852 1.089-.226 3.508-.624 5.375-.885s4.022-.648 4.789-.86c.768-.212 1.815-.385 2.328-.385.867 0 2.263-.229 7.734-1.27 1.167-.222 3.013-.546 4.102-.72 1.089-.175 2.935-.5 4.102-.722 1.167-.222 3.395-.59 4.95-.818 3.119-.456 6.816-1.175 7.17-1.394.125-.077 1.173-.274 2.328-.438 1.994-.283 4.239-.681 8.041-1.423l3.678-.718c1.089-.212 2.68-.526 3.536-.698.856-.172 2.256-.429 3.112-.57.855-.142 2.447-.524 3.536-.849 1.089-.325 2.553-.666 3.253-.756 1.713-.222 1.98-.499 1.98-2.054 0-.73.127-2.02.282-2.865.155-.845.406-2.619.557-3.942.357-3.108 1.111-7.009 2.133-11.032.217-.856.668-2.702 1.001-4.102.333-1.4.916-3.564 1.295-4.809.379-1.245.935-3.09 1.236-4.102 1.493-5.01 2.709-8.725 4.398-13.437.558-1.556 1.123-3.211 1.255-3.677.133-.467.516-1.549.853-2.405.336-.856.719-1.874.851-2.263.133-.389.515-1.407.849-2.263.335-.856.724-1.938.866-2.405.141-.466.369-1.103.505-1.414.96-2.192 1.175-2.743 1.175-3.02 0-.172.272-.899.604-1.617.741-1.597.728-1.567 2.721-6.678a71.95 71.95 0 0 1 1.245-2.901c.443-.973.805-1.931.805-2.129 0-.199.174-.612.386-.919.213-.307.482-.876.6-1.265.117-.389.504-1.344.86-2.122.356-.778.921-2.051 1.255-2.829.334-.777.721-1.669.86-1.98.14-.311.622-1.457 1.072-2.546l.82-1.98-.819-1.98c-.45-1.089-.932-2.235-1.072-2.546-.139-.311-.522-1.202-.85-1.98-.329-.778-.71-1.669-.849-1.98-1.048-2.353-1.414-3.26-1.414-3.498 0-.152-.176-.636-.39-1.076a47.216 47.216 0 0 1-.841-1.866c-.248-.586-.629-1.477-.847-1.98-.217-.504-1.003-2.507-1.746-4.452-.743-1.945-1.524-3.818-1.734-4.162-.211-.345-.384-.79-.385-.99-.001-.2-.166-.682-.367-1.071-.201-.389-.66-1.535-1.02-2.546-.361-1.011-.832-2.24-1.048-2.73-.215-.491-.392-1.07-.392-1.287 0-.218-.137-.533-.305-.701-.167-.168-.411-.734-.541-1.259-.13-.525-.513-1.654-.851-2.51-.338-.855-.724-1.937-.858-2.404-.342-1.194-1.943-5.827-2.248-6.507-.139-.311-.719-2.093-1.289-3.96a345.048 345.048 0 0 0-1.684-5.375 101.026 101.026 0 0 1-1.263-4.243 195.29 195.29 0 0 0-.99-3.536c-.564-1.9-1.897-7.568-2.529-10.75-.918-4.626-1.291-7.085-1.611-10.608-.369-4.056-.558-4.668-1.445-4.668-.331 0-1.25-.182-2.041-.406a68.648 68.648 0 0 0-2.854-.725c-4.048-.912-5.235-1.163-6.769-1.432-.922-.162-1.787-.362-1.922-.446-.136-.084-1.227-.321-2.426-.527-3.534-.607-6.674-1.217-7.129-1.385-.234-.086-1.379-.284-2.546-.441a96.901 96.901 0 0 1-3.678-.568c-.855-.157-2.765-.487-4.243-.734a179.164 179.164 0 0 1-4.668-.847 156.298 156.298 0 0 0-4.667-.834 146.64 146.64 0 0 1-4.668-.837c-1.784-.363-2.916-.55-7.638-1.264-.778-.117-2.178-.358-3.111-.535-.934-.177-2.589-.461-3.678-.631-1.089-.17-3.062-.496-4.385-.725-2.31-.398-5.504-.872-10.325-1.532-1.245-.17-2.581-.428-2.97-.572-.389-.145-1.726-.388-2.971-.542-3.973-.488-8.152-1.068-9.901-1.373-.933-.163-3.224-.505-5.092-.76-1.867-.256-4.349-.636-5.516-.847-1.167-.21-3.84-.588-5.94-.841-2.101-.252-4.901-.639-6.224-.859-2.313-.385-3.672-.549-11.74-1.419-2.022-.218-4.488-.521-5.479-.673-3.113-.478-8.782-.553-13.332-.177M118.043 92.04c2.262.958 2.042-4.568 2.042 51.248v49.594l-.671.714c-2.321 2.471-7.051 1.206-7.668-2.051-.403-2.122-.385-95.028.018-96.778.624-2.708 3.437-3.93 6.279-2.727m19.88-.138c.696.199 3.658 2.242 6.066 4.183.233.188 5.389 4.068 11.457 8.622 12.129 9.103 21.625 16.243 22.065 16.588.155.123.919.694 1.697 1.27.778.576 1.542 1.15 1.697 1.276.775.627 3.665 2.785 4.061 3.033.249.156.583.424.742.597.159.173.884.714 1.612 1.201.727.488 1.491 1.047 1.697 1.242.206.195.895.707 1.53 1.139.635.431 1.401 1.004 1.702 1.273.301.269 1.004.807 1.562 1.196.558.389 1.384.993 1.834 1.343 2.301 1.785 3.502 2.617 3.779 2.617.25 0 5.806-4.01 8.072-5.825.312-.249 4.067-3.076 8.346-6.283a17360.486 17360.486 0 0 0 33.22-24.937c11.738-8.838 11.26-8.518 13.021-8.7 4.042-.417 6.706 3.741 4.259 6.649-.619.736-11.831 9.361-13.756 10.583-.406.258-.916.645-1.132.861-.216.216-1.093.881-1.949 1.478a57.246 57.246 0 0 0-2.405 1.765c-.466.375-4.922 3.719-9.901 7.432-4.978 3.712-9.434 7.058-9.901 7.435-.466.377-1.548 1.171-2.404 1.764-.856.593-1.62 1.165-1.697 1.272-.078.107-.836.678-1.684 1.271-.848.592-1.676 1.189-1.839 1.327-.163.137-2.97 2.236-6.237 4.663-6.011 4.466-6.442 4.832-6.184 5.25.155.251 6.286 4.888 7.457 5.64.389.25.982.692 1.317.982.336.29.892.718 1.235.952.637.432 3.017 2.198 3.53 2.617.634.52 13.008 9.751 14.124 10.537a74.093 74.093 0 0 1 2.027 1.484c.452.35 1.459 1.109 2.237 1.688s1.541 1.156 1.697 1.281c.156.126 3.02 2.258 6.365 4.738 3.345 2.479 6.273 4.681 6.506 4.893.234.211 1.058.82 1.832 1.354.775.533 1.666 1.204 1.981 1.491.314.287 1.145.918 1.845 1.401.7.484 1.439 1.042 1.642 1.241.202.199 1.03.811 1.838 1.358 3.351 2.271 4.158 3.351 4.158 5.564 0 2.36-1.28 3.754-3.727 4.059-2.167.271-2.3.208-6.84-3.226-4.07-3.078-19.454-14.699-24.087-18.194a409.477 409.477 0 0 1-3.359-2.556 65.27 65.27 0 0 0-2.011-1.484c-.658-.467-2.258-1.676-3.553-2.687-1.296-1.012-2.829-2.157-3.407-2.546-1.352-.911-17.951-13.329-19.07-14.268-1.41-1.182-1.996-.968-5.94 2.173-.156.124-1.681 1.273-3.39 2.553a19534.405 19534.405 0 0 0-28.195 21.197c-.879.669-2.011 1.534-2.515 1.923s-1.524 1.153-2.267 1.697c-4.142 3.04-6.305 4.652-8.702 6.489a273.77 273.77 0 0 1-2.173 1.638 117.04 117.04 0 0 0-1.839 1.394c-3.112 2.481-7.8 5.746-8.456 5.89-2.523.554-5.189-.815-5.573-2.861-.53-2.828.551-4.453 4.971-7.473a48.577 48.577 0 0 0 2.255-1.671 43.148 43.148 0 0 1 2.233-1.645c.568-.383 1.225-.877 1.458-1.097.234-.221 3.161-2.433 6.507-4.915 3.345-2.483 6.45-4.802 6.901-5.153.45-.351 1.277-.956 1.836-1.345.56-.389 1.192-.871 1.404-1.071.212-.2 1.104-.868 1.982-1.485.878-.617 1.974-1.408 2.437-1.758 7.609-5.765 11.214-8.416 11.441-8.416.153 0 .381-.172.505-.382.124-.21.926-.877 1.782-1.482 1.624-1.148 2.054-1.471 2.627-1.975.189-.166 1.037-.79 1.886-1.385.848-.596 1.675-1.195 1.838-1.33.163-.136 1.909-1.447 3.879-2.915 4.344-3.236 4.176-2.974 2.711-4.237-1.218-1.048-15.376-11.683-18.418-13.835-.912-.644-2.136-1.586-2.721-2.091-.586-.506-1.134-.92-1.22-.92-.118 0-9.891-7.234-11.374-8.42-.156-.125-.919-.7-1.697-1.279a148.31 148.31 0 0 1-2.228-1.688 67.133 67.133 0 0 0-2.012-1.484 103.71 103.71 0 0 1-2.157-1.574c-.527-.398-3.504-2.62-6.616-4.936-11.023-8.203-11.499-8.733-10.197-11.341 1.179-2.365 3.487-3.406 5.97-2.694m147.152.5c1.566 1.162 1.502-1.16 1.421 51.598l-.075 48.882-.67.714c-1.857 1.977-6.437 1.45-7.461-.859-.484-1.09-.678-94.583-.203-97.441.308-1.855 1.036-2.972 2.252-3.457.948-.378 3.948-.021 4.736.563" fill="#443c3c" fill-rule="evenodd"/></svg>