<svg width="400" height="262.247" xmlns="http://www.w3.org/2000/svg"><path d="M188.831 27.384c-.061.058-1.226.241-2.59.406-3.75.453-10.882 2.267-13.651 3.472-2.641 1.149-3.11 1.367-5.342 2.478-9.842 4.9-18.512 12.849-24.403 22.373-.807 1.305-1.468 2.436-1.468 2.512 0 .077-.273.58-.607 1.118-2.414 3.895-5.051 11.964-6.356 19.451-.936 5.369-.4 17.897.914 21.353.153.403.281.991.284 1.306.004.315.219.85.48 1.189l.474.616 2.427-.729 2.428-.728-.135-1.199c-.075-.659-.345-2.438-.601-3.953-.832-4.921-.613-13.757.458-18.492 1.661-7.346 5.631-16.061 9.093-19.966.249-.28 1.095-1.274 1.881-2.206a44.976 44.976 0 0 1 6.44-6.302c1.154-.929 2.158-1.754 2.23-1.834 1.809-1.986 11.679-6.729 16.292-7.828 5.769-1.375 6.376-1.441 13.347-1.439 7.507.002 7.282-.037 15.607 2.643 8.27 2.662 16.248 8.208 21.245 14.768.714.938 1.508 1.933 1.763 2.212.476.52 2.174 3.29 3.307 5.395 5.275 9.796 6.634 22.174 3.68 33.501-.686 2.63-.621 2.746 1.97 3.495 1.029.297 2.402.712 3.051.922 3.083.995 10.969 3.262 11.347 3.262.573 0 .662-.185 1.231-2.549 2.047-8.503 2.409-17.362 1.012-24.729-.15-.794-.361-1.974-.469-2.623-.33-1.995-1.818-7.096-2.676-9.181-10.055-24.406-31.376-38.819-57.421-38.819-2.823 0-5.182.047-5.242.105m29.53 41.841c-.433.112-1.837.812-3.12 1.555-1.283.743-2.366 1.351-2.408 1.351-.041 0-.765.459-1.608 1.019-.844.56-2.948 1.816-4.675 2.791a388.01 388.01 0 0 0-6.226 3.603l-3.086 1.831-2.291-.444c-12.757-2.47-18.42 15.192-6.627 20.671 7.016 3.26 14.28-1.201 15.61-9.586.166-1.046 1.39-2.26 6.3-6.243 4.378-3.553 10.22-8.518 11.606-9.864 3.097-3.008.632-7.748-3.475-6.684m11.379 46.532c-7.112 2.655-8.082 12.424-1.594 16.05 9.062 5.065 18.01-6.772 10.567-13.979-2.167-2.098-6.329-3.059-8.973-2.071m-76.166 9.146c-1.982.696-3.122 2.735-2.697 4.822.722 3.543 5.763 4.075 7.472.789 1.536-2.953-1.659-6.707-4.775-5.611m52.459 7.732c-3.309.544-6.076 5.274-5.154 8.808 2.024 7.751 12.893 7.628 14.308-.161 1-5.506-3.339-9.604-9.154-8.647m-28.066 1.922a3.669 3.669 0 0 1-1.117.244c-3.413.106-5.606 6.033-3.512 9.489 3.414 5.636 12.17 3.144 12.081-3.438-.051-3.767-4.53-7.55-7.452-6.295m-10.999 47.186c-.106.172.106 1.931.473 3.908 1.634 8.821 2.272 17.499 1.747 23.792l-.539 6.426c-.244 2.894-.8 6.923-1.412 10.229-.326 1.763-.32 2.002.053 2.295.528.416 19.046.465 22.277.06 9.201-1.154 14.808-6.908 17.117-17.568.586-2.709.006-12.166-.796-12.97-.137-.137-.248-.491-.247-.787.006-2.82-7.554-12.21-9.831-12.21-.077 0-.76-.304-1.516-.677-3.685-1.812-7.813-2.392-18.713-2.629-6.407-.139-8.466-.107-8.613.131m-137.128.355c-.124.343.051 2.059.766 7.541.618 4.728.619 25.463.002 30.033-.991 7.344-1.067 8.301-.678 8.548.467.295 17.56.305 18.025.01.288-.182.275-.626-.073-2.553a734.435 734.435 0 0 1-.689-3.887c-.148-.855-.336-1.665-.419-1.799-.083-.134-.242-1.322-.354-2.642-.111-1.319-.355-3.61-.54-5.091-.219-1.739-.248-2.782-.083-2.946.781-.782 4.75 3.37 5.177 5.415.481 2.303.95 4.606 1.22 5.994 1.298 6.663 4.559 9.959 9.86 9.965 6.512.007 11.583-6.796 9.804-13.152-.434-1.549-.623-1.602-1.828-.513-2.75 2.484-5.403 1.153-7.486-3.755a72.638 72.638 0 0 0-2.12-4.461c-1.389-2.638-1.385-2.654.731-3.406 8.143-2.891 9.932-13.282 3.365-19.546-2.099-2.002-4.097-2.958-7.995-3.826-1.746-.389-26.543-.322-26.685.071m54.239 0c-.055.181-.17 2.689-.255 5.574-.169 5.77-.693 11.639-1.346 15.082-.233 1.226-.521 2.82-.641 3.541a30.76 30.76 0 0 1-.626 2.754 1643 1643 0 0 0-.943 3.348 78.629 78.629 0 0 1-1.145 3.672c-.335.972-1.226 3.597-1.98 5.833s-1.477 4.301-1.607 4.59c-1.004 2.24-1.045 2.229 8.431 2.229 10.166 0 9.474.231 8.87-2.962-.256-1.353-.505-3.512-.553-4.798l-.087-2.338.787.062c2.639.207 7.221.139 8.08-.12s1.021-.242 1.163.127c.228.595-.349 6.452-.803 8.147-.511 1.911-.651 1.882 9.118 1.882 10.015 0 9.26.42 7.66-4.254l-1.505-4.401c-.172-.505-.456-1.332-.631-1.836a148.809 148.809 0 0 1-1.494-4.46 58.432 58.432 0 0 0-.749-2.229 9.241 9.241 0 0 1-.328-1.049c-.068-.289-.39-1.469-.715-2.623-.326-1.154-.681-2.63-.79-3.279-.108-.649-.323-1.829-.478-2.623-.877-4.484-1.118-7.457-1.085-13.406.019-3.374.026-6.282.017-6.463-.014-.257-2.826-.328-13.141-.328-10.269 0-13.145.072-13.224.328m63.95-.054c-.174.173-.2.771-.071 1.639.941 6.361 1.816 18.614 1.349 18.902-.658.407-5.727-8.256-6.731-11.503a82.833 82.833 0 0 0-.729-2.262c-.134-.379-.347-1.323-.473-2.098a68.39 68.39 0 0 0-.364-2.066 45.01 45.01 0 0 1-.289-1.64l-.155-.983h-8.615c-9.857 0-9.128-.218-8.553 2.559 1.762 8.502 1.444 28.371-.637 39.801-.863 4.741-1.563 4.328 7.337 4.328 8.148 0 8.018.03 7.575-1.714-.853-3.358-1.078-4.478-1.445-7.204-.576-4.275-.331-11.016.4-11.016.307 0 3.438 4.29 3.438 4.711a.37.37 0 0 0 .207.316c.89.376 4.869 9.42 5.676 12.902.095.412.358 1.031.585 1.377l.412.628h7.952c9.08 0 9.343-.043 9.043-1.492-2.773-13.357-2.991-34.537-.449-43.534.276-.975.303-1.434.098-1.639-.386-.386-15.176-.398-15.561-.012m62.443.077c-.075.194.057 1.228.293 2.297 2.451 11.12 2.551 28.48.232 40.311-.494 2.522-.482 3.632.041 3.833.542.208 32.726.208 33.268 0 .518-.199.533-1.213.043-2.893-.739-2.531-1.199-5.537-1.37-8.948-.203-4.039-.215-4.049-2.205-1.967-4.089 4.278-11.539 3.84-13.935-.819-1.059-2.06-.187-5.262 1.762-6.466 1.075-.665.985-.692 1.795.533 3.563 5.383 11.545 2.147 9.966-4.041-.784-3.075-5.909-5.658-9.244-4.659-.558.168-1.222.305-1.476.305s-1.404.472-2.557 1.049c-2.454 1.228-2.298 1.193-2.298.508 0-1.821 1.755-5.598 3.476-7.482 4.161-4.553 10.486-3.78 13.894 1.698.787 1.265 1.125.661 1.491-2.67.288-2.613.527-4.323 1.088-7.792.152-.938.299-2 .328-2.361l.051-.655-17.254-.068c-14.283-.056-17.276-.006-17.389.287m37.532-.095c-.087.141.038 1.233.276 2.426 1.899 9.492 2.463 19.701 1.619 29.318-.422 4.806-.696 7.001-1.533 12.278-.3 1.887-.295 2.213.037 2.423.552.348 33.191.328 33.844-.021.487-.261.507-.65.507-10 0-10.885.093-10.488-1.768-7.58-2.836 4.434-7.723 7.884-11.168 7.884-7.065 0-8.813-7.272-6.083-25.311.87-5.746 1.033-6.599 1.852-9.67.569-2.132 1.128-2.003-8.682-2.003-5.394 0-8.803.098-8.901.256m46.015 5.056c-.008 2.921-.128 6.256-.266 7.41a116.64 116.64 0 0 0-.389 3.803c-.151 1.868-.705 5.191-1.444 8.656-.483 2.269-.735 3.185-2.342 8.524-.131.433-.961 2.853-1.845 5.377-2.034 5.806-2.48 7.308-2.241 7.547.105.105 4.164.191 9.021.191h8.831l.084-.73c.046-.401-.092-1.286-.306-1.967-.562-1.78-.828-6.707-.382-7.058.23-.182 1.039-.19 2.467-.024 1.889.219 3.479.13 6.531-.365.738-.12.884 3.711.257 6.755-.24 1.166-.396 2.405-.347 2.754l.09.635 8.262.074c10.839.096 10.012.476 8.537-3.928-2.023-6.037-3.047-9.025-3.262-9.523-.233-.539-1.602-5.006-2.251-7.344-1.95-7.034-3.001-18.188-2.267-24.065.271-2.171 1.184-2.034-13.531-2.034h-13.193l-.014 5.312m38.936-4.939c-.126.33.17.943 1.658 3.425.174.292.403.707.507.924.105.216.619 1.101 1.142 1.967.524.866 1.038 1.751 1.143 1.967.104.217.589 1.102 1.077 1.967 2.824 5.008 6.436 12.342 6.436 13.068 0 .185.098.448.217.585.271.311 1.748 5.042 2.125 6.806.557 2.61.621 4.929.197 7.221-1.109 6.004-1.266 7.027-1.184 7.744l.088.773 7.869.064c8.946.072 8.783.106 8.156-1.678-1.689-4.801-1.786-10.353-.27-15.435.693-2.324 1.202-3.922 1.42-4.459.117-.289.468-1.174.779-1.967.311-.794.662-1.679.781-1.967 1.067-2.605 6.22-12.475 8.472-16.229 1.548-2.581 2.751-4.794 2.673-4.92-.077-.126-4.206-.229-9.175-.229h-9.033l.002.853c.001.469.128 1.62.283 2.557.596 3.621-1.099 10.721-3.214 13.46-1.413 1.829-2.947-4.192-2.962-11.624l-.011-5.114-9.515-.069c-8.101-.059-9.537-.013-9.661.31m-284.299 9.959c3.847.762 4.758 1.578 4.511 4.038-.262 2.61-2.639 4.108-6.531 4.118-2.302.006-2.292.022-2.514-4.163-.254-4.793-.117-4.914 4.534-3.993m138.444 3.036c7.011 2.99 8.849 11.206 3.944 17.624-2.97 3.884-7.865 5.714-8.486 3.172-.938-3.839-.429-19.15.698-20.983.499-.813 1.629-.758 3.844.187m121.218 1.714c.263.866.589 1.889.725 2.273.244.688.407 1.291 1.121 4.154.198.793.478 1.907.622 2.474.465 1.829-.744 2.497-4.647 2.569-2.704.051-2.785-.2-1.45-4.5.198-.639.36-1.336.36-1.55 0-.508 1.496-5.429 1.998-6.573.469-1.068.648-.906 1.271 1.153m-210.853-1.504c.157.106.417.665.579 1.242.161.577.468 1.64.681 2.361 2.195 7.422 2.312 8.518.947 8.857-3.496.868-5.851.731-5.979-.349-.082-.697 1.639-7.534 2.539-10.082.153-.433.342-1.111.421-1.508.148-.743.32-.854.812-.521" fill="#0f2646" fill-rule="evenodd"/></svg>