<svg width="400" height="400" xmlns="http://www.w3.org/2000/svg"><path d="M89.244 46.833c-1.922.377-3.026 1.186-3.885 2.846-.989 1.913-.82 236.047.172 237.896 1.655 3.087-5.838 2.825 80.704 2.825h77.247l1.359-.908c2.539-1.696 2.76-2.669 2.741-12.092-.018-8.703-.292-10.553-1.811-12.233-1.657-1.83-5.091-1.631-7.136.413l-1.235 1.234-.136 5.893c-.107 4.643-.268 6.041-.762 6.593-1.031 1.152-140.271 1.08-140.888-.074-.683-1.277-.542-180.023.143-180.926.502-.662 4.326-.7 70.364-.7h69.834l.622.889c.512.73.623 2.272.623 8.64 0 10.932 1.452 13.181 7.178 11.112 3.244-1.172 3.022 1.424 3.022-35.402V50.138l-1.108-1.452c-.704-.924-1.65-1.603-2.6-1.867-1.85-.514-151.829-.501-154.448.014M236.4 57.6c1.131 1.131 1.258 27.631.138 28.869-.834.922-139.939 1.17-140.858.251-.806-.806-.673-27.866.143-29.031l.622-.889h69.578c69.044 0 69.583.006 70.377.8M105.767 68.388c-4.224 1.709-3.836 8.377.559 9.598 7.931 2.203 15.271-3.085 10.851-7.816-1.912-2.047-8.293-3.043-11.41-1.782m22.352.396c-3.576 2.181-3.163 7.674.681 9.053 7.675 2.753 15.697-2.827 11.116-7.732-2.145-2.297-8.947-3.059-11.797-1.321m23.081-.083c-3.771 1.883-3.489 7.801.437 9.176 7.533 2.64 15.431-2.569 11.315-7.461-2.118-2.517-8.331-3.424-11.752-1.715m-43 43.456c-3.035 1.35-2.8-1.591-2.8 35.059v32.731l1.16 1.211c1.952 2.038 2.816 2.089 33.121 1.96l27.782-.118 1.493-1.139c2.307-1.76 2.244-.784 2.238-34.787-.006-34.07.072-32.805-2.123-34.435-1.436-1.066-58.541-1.518-60.871-.482m77.838-.122c-3.424 1.37-3.29-.162-3.154 36.036.131 35.127-.14 32.36 3.342 34.129 2.458 1.249 32.422 1.237 34.574-.014 2.943-1.71 2.799.09 2.799-34.992.001-35.137.145-33.369-2.833-34.893-1.562-.8-32.795-1.039-34.728-.266m-26.012 10.379c1.149.615 1.22 48.559.074 49.429-1.03.782-42.77.782-43.8 0-.891-.676-1.104-48.479-.22-49.363.633-.633 42.769-.696 43.946-.066m52.4 0c.752.402.774 1.097.774 24.577v24.164l-.889.622c-1.363.955-17.319.921-18.38-.039-.918-.831-1.161-48.348-.251-49.258.62-.62 17.599-.68 18.746-.066m78.482 4.972c-2.383 1.048-2.905 2.537-2.907 8.285-.002 7.109 3.134 6.329-25.421 6.329-27.293 0-26.722-.057-28.198 2.835-.978 1.917-.99 3.442-.037 4.887 1.721 2.61.149 2.458 27.722 2.678 13.787.11 25.217.35 25.4.533.183.183.427 2.793.542 5.8.315 8.223.658 8.566 8.89 8.874 6.833.256 6.287-.594 6.295 9.813.007 10.179.526 9.38-6.094 9.38-8.159 0-9.092.881-9.105 8.6-.004 2.64-.178 5.07-.386 5.4-.328.519-3.686.627-24.894.8-21.421.175-24.694.281-25.933.845-2.811 1.28-3.927 4.741-2.306 7.155 1.949 2.903.917 2.799 27.824 2.799 28.722.001 25.7-.733 25.7 6.241 0 7.811.824 8.623 9 8.872 4.163.127 5.3.287 5.7.8.73.936.713 17.414-.019 18.021-.36.298-10.452.468-32.7.549-31.349.115-32.216.139-33.542.918-3.972 2.335-3.296 8.169 1.087 9.386 2.155.599 69.529.563 71.917-.038 1.289-.325 2.102-.853 2.877-1.868l1.08-1.416.2-12.713c.121-7.684.358-12.862.6-13.092.22-.208 2.757-.447 5.637-.531 9.293-.272 8.962.473 8.953-20.128-.01-21.229.269-20.6-9.149-20.6-6.474 0-6.041.67-6.041-9.352 0-10.294-.452-9.586 6.288-9.848 9.227-.358 8.909.362 8.91-20.2.001-17.622-.013-17.726-2.527-19.572-1.48-1.086-33.003-1.48-35.363-.442m26.612 10.294c.814.814.67 18.961-.153 19.277-1.262.485-17.98.27-18.487-.237-.345-.345-.48-3.022-.48-9.52 0-6.498.135-9.175.48-9.52.68-.68 17.96-.68 18.64 0M108.6 192.16c-.66.296-1.65 1.025-2.2 1.621l-1 1.083v24.797l1.494 1.37 1.494 1.369h58.294l1.318-.9c2.745-1.873 2.835-2.373 2.711-14.972-.123-12.486-.166-12.695-2.947-14.128-1.657-.854-57.289-1.08-59.164-.24m77.985-.143c-.668.199-1.748.918-2.4 1.598L183 194.851l-.122 11.534c-.186 17.478-2.039 16.011 20.242 16.014 22.363.002 20.477 1.383 20.478-14.999.001-16.927 1.703-15.576-19.727-15.673-8.839-.039-16.618.091-17.286.29m130.935 5.663c.345.345.48 3.042.48 9.61v9.13l-1.099.418c-1.825.693-17.637.311-18.11-.438-.523-.829-.502-17.445.023-18.426.508-.949 17.78-1.22 18.706-.294m-158.283 5.157c.995.995 1.028 7.86.043 8.844-.853.852-41.442.967-42.734.12-1.233-.808-1.451-7.779-.284-9.07 1.107-1.222 41.747-1.122 42.975.106m53.074-.214c.817.572.889.944.889 4.577 0 5.433.447 5.2-10 5.2-10.422 0-10 .215-10-5.091 0-5.6-.536-5.309 9.773-5.309 7 0 8.601.107 9.338.623m-104.226 34.973c-2.848 1.293-2.938 1.782-2.802 15.39.162 16.263-2.695 14.614 25.317 14.614 28.101 0 25.2 1.752 25.2-15.215v-12.332l-1.177-1.229c-1.88-1.962-2.582-2.02-24.423-2.013-19.349.006-20.488.047-22.115.785m68.4-.351c-1.418.416-2.519 1.346-3.343 2.825-.689 1.236-.995 18.305-.398 22.144.344 2.205.667 2.981 1.649 3.964l1.222 1.222 21.892.105c28.813.138 26.094 1.732 26.092-15.299-.003-16.77 2.569-15.185-24.781-15.277-12.563-.042-21.547.085-22.333.316m-31.659 10.369c.933.499 1.182 8.218.294 9.106-.355.355-4.133.48-14.52.48s-14.165-.125-14.52-.48c-.832-.832-.645-8.584.22-9.088.961-.559 27.483-.576 28.526-.018m67.745.215c1.025 1.024.905 8.395-.145 8.957-.832.445-27.463.605-28.593.171-.806-.309-.941-8.489-.153-9.277.814-.814 28.069-.674 28.891.149m-57.268 70.977c-4.682.683-4.757.776-6.11 7.564-1.15 5.769-.753 5.4-5.858 5.435-10.177.07-15.983 7.245-17.15 21.195-.395 4.728-1.901 6.195-4.496 4.377-1.207-.845-1.145-1.958.517-9.377 2.035-9.078 1.814-11.314-1.424-14.422-2.551-2.448-6.315-2.74-9.988-.775-1.246.667-2.44.446-3.265-.603-.729-.926-1.038-1-4.176-1-4.162 0-4.926.564-5.685 4.2-.275 1.32-.753 3.57-1.06 5-.308 1.43-.951 4.49-1.428 6.8-1.987 9.614-3.485 11.832-7.129 10.55-2.012-.707-1.977-1.65.486-13.233 2.626-12.345 2.631-12.397 1.237-12.927-1.426-.542-6.046-.488-7.643.089-.981.355-1.862.37-3.386.058-10.254-2.101-18.417 7.399-19.052 22.173-.335 7.785 1.918 10.89 7.903 10.89 2.044 0 6.546-1.95 6.953-3.012.337-.878 2.751-.76 3.328.163 1.571 2.516 7.131 3.249 10.75 1.418l2.203-1.115 1.162 1.273c1.109 1.214 1.301 1.273 4.167 1.273 4.898 0 5.246-.347 6.429-6.415.32-1.642 1.048-5.145 1.618-7.785.57-2.64 1.209-5.7 1.42-6.8.941-4.907 1.457-6.026 3.123-6.777 3.839-1.731 5.777 1.268 4.461 6.904-3.194 13.677-3.006 17.153 1.059 19.534 2.794 1.638 4.928 1.505 8.963-.556l3.227-1.649 1.471 1.315c3.524 3.154 9.963 2.749 13.334-.839 1.169-1.245 1.621-1.182 3.414.473 3.59 3.314 8.435 3.017 13.469-.826 2.305-1.761 2.394-1.75 4.66.552 7.726 7.848 19.536.931 22.604-13.237.688-3.18 1.49-4.294 3.091-4.294 1.267 0 1.227 1.069-.318 8.514-2.158 10.397-2.179 10.566-1.388 11.282.817.74 6.249.84 7.777.143 1.228-.559.879.654 3.838-13.339 2.83-13.387 2.837-13.406 5.036-14.168 1.536-.533 1.716-.513 2.881.317 2.2 1.566 2.101 2.709-1.753 20.299-1.577 7.197-1.498 7.352 3.754 7.352 4.114 0 4.685-.439 5.462-4.2l2.393-11.591c.999-4.835 1.816-9.383 1.816-10.106 0-1.977 2.21-3.003 4.181-1.941 2.279 1.227 2.326 2.57.419 11.894-2.3 11.244-1.441 14.225 4.493 15.595 3.952.912 13.146-5.493 14.805-10.313.682-1.982-.709-2.1-2.328-.199-3.728 4.378-5.187 5.278-7.088 4.371-1.58-.754-1.563-2.56.1-10.451 1.972-9.36 1.829-10.985-1.236-14.05-2.974-2.974-5.985-3.082-10.811-.386-2.955 1.651-3.744 1.702-5.214.337-2.767-2.569-5.723-3.076-9.36-1.607l-2.545 1.028-1.49-1.032c-1.372-.951-1.761-1.021-4.94-.891-4.013.165-4.294.384-5.011 3.896-1.407 6.89-5.041 7.991-6.344 1.921-1.155-5.378-5.218-7.326-11.773-5.644-7.57 1.942-11.914 8.334-13.082 19.25-.543 5.077-.708 5.464-2.773 6.518-2.21 1.127-3.749 1.048-4.591-.237-.735-1.122-.434-2.749 6.147-33.162 1.142-5.279.761-5.726-4.256-4.994M40.08 332.011c-.479.446-.955 1.211-1.059 1.7-.104.489-.832 3.949-1.618 7.689-.785 3.74-1.687 7.97-2.003 9.4-3.142 14.212-3.152 14.168 2.987 13.919 3.76-.153 4.035-.517 5.371-7.119.557-2.75 1.477-7.16 2.044-9.8.567-2.64 1.198-5.648 1.401-6.684.882-4.488 4.45-6.094 6.166-2.775 2.11 4.079 7.431 2.003 7.431-2.899 0-3.364-4.085-4.904-8.192-3.087-2.213.979-3.239 1.064-3.688.303-.989-1.673-7.246-2.131-8.84-.647m222.06-.413c-.966.389-1.413 1.572-2.343 6.202-.354 1.76-1.623 7.837-2.82 13.504-2.963 14.023-3.037 13.496 1.884 13.496 4.996 0 5.211-.225 6.507-6.814.323-1.642.962-4.696 1.419-6.786.458-2.09 1.191-5.553 1.629-7.696 1.002-4.897 1.382-5.717 3-6.485 3.998-1.897 5.729 1.308 4.253 7.873-1.212 5.39-3.205 15.044-3.5 16.955-.361 2.339.612 2.953 4.676 2.953 4.144 0 4.514-.348 5.527-5.2.437-2.09 1.421-6.77 2.188-10.4.767-3.63 1.52-7.745 1.674-9.144.352-3.207 2.027-4.344 4.465-3.031 2.276 1.226 2.307 2.285.348 11.816-.796 3.873-1.446 7.563-1.445 8.2.013 6.817 6.894 9.78 12.979 5.59 2.566-1.767 2.879-1.77 5.063-.039 3.619 2.869 6.933 2.761 11.717-.381 3.277-2.152 3.575-2.186 4.952-.55 2.888 3.433 8.534 3.699 12.665.597 2.113-1.586 2.508-1.578 4.338.087 3.7 3.366 8.099 3.354 12.564-.033 2.24-1.7 3.342-1.765 4.155-.247 2.073 3.875 9.55 2.977 15.017-1.804 6.672-5.834 8.428-10.382 1.991-5.156-3.554 2.886-7.036 3.641-8.019 1.741-.755-1.459-.786-1.258 2.759-17.787 1.685-7.856 1.558-8.093-4.13-7.696-1.899.132-5.613.287-8.253.344-10.472.224-16.169 6.609-17.576 19.698-.507 4.713-.6 4.992-1.946 5.813-2.662 1.623-4.678.7-4.678-2.144 0-1.488 1.31-8.117 3.632-18.377 1.159-5.119.609-5.736-4.836-5.429-1.885.107-3.006.371-3.448.812-.559.56-4.942 19.219-4.947 21.06-.008 3.4-5.461 6.264-7.585 3.985-1.072-1.151-.809-2.914 2.799-18.775 1.473-6.475 1.156-7.15-3.363-7.15-5.157 0-4.841-.53-7.655 12.864a4094.222 4094.222 0 0 1-2.408 11.417c-.571 2.585-3.955 4.074-5.246 2.309-.823-1.125-.672-2.854.857-9.846 2.026-9.265 1.831-11.162-1.482-14.378-2.853-2.768-5.848-2.761-10.91.025-2.744 1.51-5.008 1.542-5.008.07 0-1.757-5.863-2.805-9.003-1.609-2.673 1.018-3.139 1.009-4.535-.089-1.053-.828-6.188-1.065-7.922-.365m-183.159 4.066c1.36.62 1.333 1.764-.208 8.875-.675 3.114-1.512 7.011-1.861 8.661-1.787 8.445-8.477 7.614-7.992-.993.589-10.438 5.551-18.598 10.061-16.543m67.317.417c.993.825-2.695 18.865-4.301 21.037-2.675 3.619-6.806 1.305-6.792-3.805.029-10.403 6.747-20.839 11.093-17.232m33.328-.467c1.056.565.982 2.159-.171 3.713-1.658 2.234-1.546 4.705.283 6.222 1.835 1.522-.953 9.806-3.917 11.638-5.006 3.094-7.594-2.501-5.269-11.387 2.065-7.886 5.715-11.984 9.074-10.186m180.127.297c.87.496-2.537 18.383-3.96 20.792-2.451 4.15-6.993 2.151-6.993-3.076 0-10.836 5.998-20.537 10.953-17.716m-119.109 9.102c-1.171 1.171-1.282 3.427-.211 4.295 1.265 1.023 10.717.915 11.766-.136.866-.865 1.234-3.41.604-4.169-.739-.89-11.267-.882-12.159.01" fill="#3c3c3c" fill-rule="evenodd"/></svg>