<svg width="400" height="406.192" xmlns="http://www.w3.org/2000/svg"><path d="M194.8 8.783c-3.486.642-7.665 2.628-10.6 5.038-3.002 2.465-122.979 122.472-123.397 123.427-.229.524-.825 1.672-1.324 2.552-3.284 5.793-4.202 15.345-1.895 19.731.193.368.743 1.479 1.222 2.469 1.695 3.505 4.629 6.516 63.977 65.659 69.56 69.317 63.328 63.336 67.239 64.538.538.166 1.158.433 1.378.595.22.161 2.129.613 4.243 1.003 6.02 1.111 11.386-.108 17.557-3.989 2.105-1.323 121.668-120.55 124.155-123.806 6.912-9.047 6.632-20.686-.727-30.183-1.072-1.383-106.367-106.715-117.144-117.184-4.687-4.553-7.738-6.917-10.294-7.973a351.642 351.642 0 0 1-3.159-1.327c-1.611-.69-8.608-1.032-11.231-.55m13.092 3.528c4.191 2.086 4.337 2.228 67.247 64.958 59.715 59.544 61.14 60.999 62.56 63.931 3.67 7.572 3.591 13.929-.258 20.6-1.753 3.039-119.273 121.346-124.441 125.274-7.847 5.965-17.574 6.376-25.672 1.085-2.532-1.654-119.896-118.492-123.312-122.759-8.21-10.255-7.265-21.245 2.681-31.2C109.658 91.204 185.07 16.218 186.38 15.193c5.997-4.691 15.36-5.946 21.512-2.882m-11.277 11.16c-.651.109-2.181.854-3.4 1.656-2.368 1.559-118.011 116.67-119.796 119.246-2.516 3.63-2.803 7.898-.823 12.227.982 2.146 117.41 118.784 120.547 120.764 6.144 3.879 10.543 2.559 18.829-5.65 37.533-37.186 113.8-113.8 114.363-114.884 1.189-2.292 1.775-5.288 1.286-6.576-.232-.608-.421-1.48-.421-1.936 0-2.468-1.978-4.57-39.734-42.234a129385.704 129385.704 0 0 1-59.021-58.913c-24.762-24.742-24.919-24.859-31.83-23.7m5.585 52.736c1.98.311 4.23.645 5 .741.77.097 2.48.571 3.8 1.053 1.32.483 2.94 1.028 3.6 1.211 3.354.932 10.932 4.392 14 6.393.66.431 1.56.974 2 1.206 4.256 2.251 7.484 5.74 9.798 10.589 2.162 4.529 2.229 4.692 2.966 7.2.388 1.32.884 2.94 1.102 3.6.509 1.535 1.515 5.645 1.764 7.2 1.24 7.761.973 9.912-1.472 11.883-2.018 1.627-5.457 2.48-7.664 1.901-6.827-1.791-5.75-1.092-12.048-7.821-3.412-3.645-8.17-6.083-17.246-8.837-11.095-3.367-27.832 1.312-31.861 8.906-1.054 1.987-.954 2.179 1.357 2.615.937.176 2.874.605 4.304.954 1.43.348 3.86.878 5.4 1.176 1.54.299 3.34.721 4 .938.66.217 2.37.703 3.8 1.081 1.43.378 3.23.915 4 1.193.77.277 2.48.818 3.8 1.202 1.32.383 3.03.923 3.8 1.2.77.276 2.48.831 3.8 1.231 2.221.675 8.546 2.944 10.4 3.731.44.187 1.88.743 3.2 1.235 1.32.492 2.967 1.147 3.66 1.454.694.307 1.461.558 1.706.558.245 0 .757.162 1.139.36.382.198 2.675 1.301 5.094 2.449 26.462 12.565 37.112 40.687 23.324 61.591-4.575 6.935-20.013 18.4-24.776 18.4-.234 0-.993.242-1.687.538-4.344 1.854-13.406 3.594-21.376 4.104-3.787.242-6.674.068-17.484-1.053-5.739-.595-12.13-2.196-16.8-4.206a473.92 473.92 0 0 0-4.4-1.843c-9.965-4.127-17.816-9.801-24.708-17.856-4.42-5.166-6.338-13.588-3.841-16.863 3.164-4.148 16.355-10.902 18.768-9.611.701.375.601.65-1.422 3.897-5.861 9.407-5.859 10.094.031 12.877 6.766 3.197 21.083 5.502 28.372 4.568.66-.085 4.35-.336 8.2-.559 13.805-.799 22.415-2.227 25.2-4.179.33-.232 1.234-.741 2.01-1.132 3.967-2 5.373-4.753 3.49-6.83-1.092-1.205-8.029-4.727-10.404-5.283-.607-.141-1.202-.418-1.323-.613-.121-.196-.497-.356-.836-.356-.339 0-1.183-.239-1.877-.53-.693-.292-2.52-.936-4.06-1.432-1.54-.496-3.16-1.051-3.6-1.234-.44-.184-2.15-.732-3.8-1.219-1.65-.487-3.36-1.027-3.8-1.199-2.127-.835-11.556-3.449-15.8-4.381a170.3 170.3 0 0 1-3.2-.747c-.99-.242-2.61-.633-3.6-.87a612.656 612.656 0 0 1-7.984-1.975c-.982-.25-1.972-.605-2.2-.788-.229-.183-1.04-.466-1.803-.63-.763-.163-1.663-.443-2-.621-.337-.178-1.423-.681-2.413-1.117-4.663-2.056-8.152-3.865-9.468-4.911-.793-.63-1.604-1.146-1.801-1.146-1.841 0-9.94-10.454-10.986-14.18-.25-.891-.756-2.61-1.125-3.82-1.432-4.7-1.931-12.473-1.052-16.4 3.04-13.581 8.32-23.837 16.301-31.663 3.21-3.148 7.308-6.337 8.143-6.337.182 0 .592-.261.91-.58.501-.5 2.366-1.288 9.478-4.002 1.398-.534 4.243-1.302 8.4-2.268 4.606-1.071 17.412-1.148 23.8-.143M120.4 342.4c-.33.213-.96.393-1.4.398-1.64.022-5.177 2.16-6 3.628-.44.784-1.495 2.472-2.345 3.751-.85 1.28-1.9 3.158-2.333 4.175-.433 1.016-1.02 2.388-1.303 3.048-.572 1.331-1.442 4.787-2.393 9.511-.804 3.998-.817 10.046-.026 12.289.33.935.6 2.375.6 3.199 0 2.35 2.841 7.965 4.343 8.585 1.581.652 5.545-1.428 7.047-3.697.947-1.432 1.029-1.922 1.116-6.716l.094-5.171 1.8.103c10.323.592 9.738.506 10.9 1.606.605.572 1.1 1.324 1.1 1.67 0 .346.427 1.09.949 1.653.523.563 1.328 1.821 1.79 2.796.463.975.999 2.042 1.192 2.372.193.33.782 1.465 1.31 2.522 2.249 4.506 5.305 4.785 8.142.744 1.741-2.482 1.848-10.223.186-13.498-1.641-3.234-1.64-3.201-.162-4.847 6.994-7.789 3.983-21.533-5.513-25.161-2.889-1.104-3.193-1.195-8.494-2.528-3.411-.858-9.554-1.108-10.6-.432m87.582 1.55c-3.5.334-6.782 2.793-6.782 5.079 0 .375-.72 2.183-1.6 4.018-.88 1.836-1.6 3.575-1.6 3.865 0 .29-.174.702-.387.915-.213.213-.95 2.544-1.638 5.18-4.04 15.493 1.178 32.954 8.249 27.606.611-.463 2.243-.59 7.67-.6 14.291-.027 22.322-4.838 24.948-14.946 2.546-9.802-3.141-20.669-14.369-27.456-1.83-1.106-3.414-2.011-3.522-2.011-.107 0-.95-.34-1.873-.756-1.991-.897-5.479-1.24-9.096-.894m46.406 1.467c-13.053 6.965-18.126 24.744-11.253 39.443 1.82 3.893 3.327 5.072 10.665 8.338.44.196 1.61.467 2.6.603.99.135 2.758.446 3.928.692 4.097.86 13.338-2.084 17.522-5.582.933-.781 5.218-9.419 6.403-12.911 2.45-7.217-.075-20.717-4.803-25.679-2.246-2.358-6.83-3.921-9.993-3.408-.91.148-1.735-.01-2.51-.482-4.394-2.672-8.786-3.027-12.559-1.014m-94.856.725c-4.289 1.338-4.821 3.389-4.766 18.362.024 6.433.205 12.236.402 12.896.198.66.464 2.595.591 4.301.127 1.705.51 3.768.851 4.585.341.816.72 2.57.843 3.899.517 5.611 3.614 7.297 4.803 2.615.14-.55.38-1.18.534-1.4.685-.98 3.206-9.082 3.219-10.346.005-.47.366-1.642.804-2.606l.794-1.752 1.546 1.752c.85.964 2.423 2.667 3.496 3.786 1.073 1.119 2.491 2.703 3.151 3.52.66.817 1.83 1.872 2.6 2.345.77.473 2.03 1.338 2.8 1.922.77.585 2.03 1.297 2.8 1.584.77.287 2.18.864 3.132 1.283 8.355 3.673 1.357-15.62-8.519-23.488-1.249-.995-1.296-2.314-.113-3.124 1.487-1.019 3.244-2.76 4.918-4.875.87-1.099 1.979-2.359 2.463-2.8.485-.44 1.348-1.701 1.918-2.801.57-1.1 1.778-2.661 2.685-3.469 1.756-1.564 2.26-3.6 1.083-4.374-2.359-1.549-15.679 3.598-20.95 8.096-2.817 2.404-3.148 2.339-3.466-.684-.369-3.511-2.074-7.673-3.701-9.032-.966-.807-1.82-.85-3.918-.195m-141.411 1.416c-8.177 5.924-12.6 31.418-7.204 41.524 1.888 3.535 9.511 1.27 10.098-2.999.609-4.436 1.974-7.774 2.389-5.841.307 1.431 1.205 3.125 2.628 4.958.598.77 1.195 1.766 1.327 2.213.552 1.872 3.679 2.749 5.02 1.408.428-.428 1.488-.97 2.355-1.203a4.718 4.718 0 0 0 2.536-1.721c1.354-1.83 3.53-6.078 3.53-6.893 0-.375.25-1.25.554-1.944.305-.693.964-2.43 1.464-3.86 1.589-4.542 2.779-5.087 2.787-1.276.002 1.252.27 3.266.595 4.476.325 1.21.593 2.743.595 3.406.003.663.339 1.833.747 2.6.66 1.24 1.187 3.082 1.849 6.466.65 3.319 5.009 2.122 5.009-1.375 0-.285.247-.874.549-1.308.75-1.078 1.922-6.078 3.091-13.189.65-3.947.227-11.017-.818-13.7-.45-1.154-.996-2.891-1.213-3.858-.638-2.849-3.017-6.471-4.736-7.211-.81-.349-1.772-.848-2.137-1.108-2.111-1.505-10.439 6.353-15.023 14.177-1.56 2.662-2.093 1.988-4.98-6.3-.46-1.32-1.083-2.684-1.385-3.031-.301-.348-.548-.735-.548-.862 0-.483-2.654-3.198-3.846-3.935-1.759-1.087-3.362-.969-5.233.386m325.065-.808c-.918.374-6.386 6.699-6.386 7.388 0 .122-.495.996-1.1 1.942-1.784 2.789-2.081 3.278-2.504 4.12-.22.44-1.033 1.88-1.806 3.2-.772 1.32-1.61 2.805-1.861 3.3-.926 1.822-2.008.878-2.517-2.198-.155-.934-.423-1.785-.595-1.891-.172-.107-.729-1.323-1.238-2.703-1.055-2.861-1.501-3.648-3.801-6.708-.909-1.21-1.775-2.695-1.923-3.3-.485-1.975-2.188-1.499-6.076 1.7-2.996 2.464-4.449 4.424-6.82 9.2-1.744 3.511-2.393 3.634-3.661.693-.497-1.151-.902-2.362-.9-2.69.004-1.128-3.643-7.94-4.58-8.555-1.674-1.097-5.548-.02-6.926 1.925-1.914 2.701-1.474 9.363 1.138 17.227 1.096 3.3 2.284 6.9 2.639 8 .356 1.1.9 2.295 1.21 2.655.31.36.923 1.601 1.362 2.756.439 1.155 1.558 3.111 2.488 4.345 1.747 2.321 2.419 3.534 2.902 5.236.405 1.43 1.741 3.107 2.667 3.349 2.772.725 8.296-3.945 8.304-7.021.002-.506.289-1.46.638-2.12.35-.66.781-2.853.959-4.874.468-5.334.951-5.776 2.572-2.351.566 1.197 1.029 2.443 1.029 2.77 0 .326 1.08 2.181 2.4 4.121 1.32 1.94 2.401 3.799 2.403 4.131.013 3.137 5.341 5.5 6.212 2.755.137-.43.909-1.205 1.717-1.722.874-.56 1.866-1.727 2.453-2.885.542-1.07 1.378-2.485 1.858-3.145.481-.66 1.63-3 2.555-5.2.925-2.2 1.843-4.171 2.042-4.38.198-.209.361-.659.362-1 .002-.341.272-1.136.6-1.766.329-.63.598-1.353.598-1.606 0-.253.34-1.094.756-1.87 1.009-1.883 1.678-5.874 2.04-12.178.165-2.86.527-5.856.806-6.657.84-2.42-.305-4.689-2.016-3.993m35.746.919c-1.933 2.079-2.532 5.112-2.532 12.817 0 7.946-.142 8.251-2.05 4.414-.738-1.485-2.429-4.14-3.758-5.9-1.329-1.76-2.754-3.74-3.167-4.4-1.732-2.765-5.927-6.601-7.203-6.586-9.191.106-10.628 3.644-9.414 23.186.54 8.704 1.021 13.403 1.436 14.048.196.303.45 2.414.564 4.69.222 4.409.735 5.449 2.557 5.177.729-.109 1.125-.675 3.162-4.515.467-.88 1.014-1.828 1.215-2.106.742-1.025 3.024-8.284 3.287-10.454.506-4.177 1.085-4.491 2.955-1.604.726 1.12 1.974 2.695 2.774 3.5a42.333 42.333 0 0 1 2.769 3.148c.723.925 2.365 2.321 3.648 3.101 1.284.78 3.021 2.182 3.859 3.117 3.445 3.838 5.923 4.18 6.035.832.037-1.136.331-2.486.652-3 2.089-3.34 4.566-19.094 4.149-26.383-.376-6.565-.982-11.234-1.527-11.767-1.945-1.904-8.069-2.759-9.411-1.315m-297.57 3.076c-5.936 3.884-14.039 15.136-15.853 22.014-1.699 6.446-2.223 11.741-1.496 15.121.564 2.625.812 2.921 2.813 3.37 3.674.826 6.111-.517 8.075-4.45.684-1.37 1.09-1.767 1.699-1.661 2.403.418 8.116.314 9.497-.173 1.497-.529 3.094.695 3.102 2.376.004 1.104 4.558 5.86 5.601 5.851 3.95-.034 7.35-3.989 6.332-7.367-.203-.674-.521-2.396-.707-3.826-.186-1.43-.785-3.86-1.332-5.4-1.363-3.844-2.153-6.51-2.481-8.378-.153-.868-.713-2.437-1.245-3.487-.532-1.049-.967-2.236-.967-2.637 0-.732-.587-1.958-2.536-5.298-.578-.99-1.241-2.16-1.474-2.6-1.13-2.132-1.581-2.68-3.122-3.796-2.168-1.571-3.062-1.519-5.906.341m190.297.465c1.445.401 2.137 1.154 3.666 3.99 1.773 3.287 1.204 12.622-1.035 16.985-4.582 8.928-8.509 12.246-12.776 10.792-3.373-1.149-7.269-6.028-7.903-9.895-.187-1.145-.464-2.568-.614-3.162-1.249-4.932 5.746-16.62 10.322-17.247 1.003-.137 2.421-.614 3.152-1.06 1.471-.897 2.987-1.015 5.188-.403m-148.269 2.201c2.936.606 4.188 1.074 9.656 3.61 7.458 3.459 1.94 8.316-12.425 10.936-3.101.566-3.005.826-2.79-7.519.22-8.518-.044-8.185 5.559-7.027m88.765 2.934c.855.58 1.997 1.298 2.538 1.595 4.942 2.714 9.79 9.912 10.036 14.901l.15 3.04-1.739 1.372c-1.517 1.196-4.005 2.687-5.94 3.559-1.024.461-3.335 1.5-4.806 2.16-.774.346-2.116.675-2.984.729l-1.577.099.179-9.4c.098-5.17.188-10.75.199-12.4.055-8.09.151-8.229 3.944-5.655M84.134 366.684c.292 5.748.186 6.035-2.022 5.488-1.838-.455-2.02-1.14-.936-3.52.453-.995.824-2.347.824-3.006 0-.66.166-1.301.369-1.427.203-.125.488-.766.632-1.424.517-2.356.88-1.113 1.133 3.889" fill="#070707" fill-rule="evenodd"/></svg>