<svg width="400" height="434.505" xmlns="http://www.w3.org/2000/svg"><path d="M180 9.656c-2.52.299-4.859 1.091-7.557 2.559C170.247 13.411 68.9 114.621 66.878 117.639c-.678 1.011-1.357 2.361-1.51 3-.153.638-.478 1.414-.723 1.722-.279.352-.441 2.597-.434 6 .012 6.179.817 8.598 4.409 13.239 2.599 3.358 37.67 38.103 38.262 37.906 1.549-.516.075-2.177-17.201-19.394-23.325-23.246-22.771-22.586-23.717-28.219-.812-4.833-.061-9.185 2.184-12.654 2-3.091 101.819-102.997 104.977-105.069 5.617-3.686 13.785-3.65 19.475.086 3.391 2.226 103.42 102.686 105.15 105.603 2.821 4.757 2.905 12.401.187 17.078-1.34 2.305-99.287 100.765-103.737 104.28-5.086 4.017-11.208 5.226-16.807 3.319-4.515-1.538-6.046-2.875-26.028-22.724-17.95-17.83-21.256-20.812-20.694-18.662.214.82 37.215 37.819 40.129 40.128 6.9 5.465 16.518 5.485 23.6.049 1.21-.929 24.884-24.332 52.608-52.008 53.946-53.851 52.311-52.106 53.238-56.827.142-.72.414-1.406.606-1.524.478-.296.441-8.413-.043-9.273-.215-.382-.572-1.426-.795-2.319-.222-.893-.972-2.513-1.666-3.6-1.443-2.259-103.607-104.532-105.148-105.26-1.165-.55-4.244-1.863-5.4-2.302-1.402-.533-5.525-.828-7.8-.558m-.198 12.219c-.439.122-1.519.726-2.4 1.343-2.987 2.091-99.621 99.254-100.433 100.982-1.142 2.433-1.051 6.729.188 8.8 1.105 1.849 33.843 34.905 35.043 35.384 1.349.539 2.578-.441 9.851-7.86 12.022-12.26 42.475-41.486 62.477-59.958 7.577-6.998 7.159-7.063 15.672 2.441 12.904 14.404 13.312 15.1 10.701 18.262-1.211 1.468-10.565 11.871-16.301 18.131-2.016 2.2-4.911 5.367-6.433 7.038-13.988 15.357-26.332 28.548-38.467 41.105-4.675 4.837-8.5 9.118-8.5 9.512 0 .847 33.271 34.483 36.139 36.535 2.553 1.828 6.279 2.17 9.258.852 2.312-1.022 100.134-98.878 101.73-101.765 1.295-2.34 1.083-6.59-.454-9.135-1.554-2.574-46.68-47.959-47.673-47.947-.585.007-1.439 1.088-3.175 4.022-3.843 6.492-8.536 10.977-14.894 14.232-3.681 1.886-6.367 1.253-7.101-1.673-.962-3.831 9.174-15.872 16.418-19.505 4.699-2.357 6.279-.229-18.965-25.557-26.429-26.516-26.868-26.855-32.681-25.239m20.773 32.904c3.277 2.72 4.207 15.627 1.635 22.711-2.194 6.046-6.279 5.986-8.35-.122-4.138-12.208.485-27.759 6.715-22.589m-34.839 17.887c4.494 2.309 9.411 7.908 11.845 13.489 1.584 3.634 1.385 4.602-1.235 6.017l-1.43.772-3.126-1.485c-9.114-4.328-17.266-15.139-14.281-18.939 1.812-2.307 3.51-2.277 8.227.146m25.217 33.048c-1.611.925-15.801 16.341-15.669 17.025.07.364 1.475 1.326 3.127 2.142 3.876 1.913 5.902 3.679 8.218 7.163 2.708 4.073 2.643 4.08 7.805-.752 5.87-5.494 12.433-11.292 12.782-11.292 1.162 0 1.255-1.758.136-2.568-.632-.458-3.82-3.082-7.084-5.832-7.954-6.701-7.925-6.683-9.315-5.886m54.847.702c7.412 1.058 10.467 2.938 10.098 6.214-.843 7.478-27.498 7.095-27.498-.395 0-2.928.99-3.664 7-5.202 4.295-1.1 6.22-1.214 10.4-.617M168.136 129.5c-.678.605-3.995 4.07-7.371 7.7-3.375 3.63-13.266 13.8-21.979 22.6-10.962 11.072-15.987 16.42-16.314 17.362l-.474 1.362 4.68 4.738c6.097 6.173 5.037 6.335 13.922-2.127 17.402-16.574 20.448-19.43 28.2-26.439 14.996-13.559 14.442-12.846 11.278-14.519-2.652-1.403-6.281-5.429-7.87-8.734-1.643-3.415-2.15-3.657-4.072-1.943m52.995.103c9.813 4.453 20.455 18.3 17.116 22.269-1.609 1.911-2.31 1.888-6.413-.214-7.684-3.937-17.029-14.476-17.033-19.211-.003-2.632 3.414-4.167 6.33-2.844m158.212 140.715c-4.862 1.725-11.177 8.612-12.78 13.938-2.583 8.583 3.443 16.209 7.774 9.839 3.23-4.75 7.344-7.821 11.69-8.727 2.801-.584 3.563-.969 5.297-2.675 6.131-6.027-3.073-15.534-11.981-12.375M62.6 313.211c-18.404 1.987-30.497 15.353-28.541 31.544.984 8.152 3.076 11.563 13.388 21.832 8.741 8.705 10.807 11.379 12.639 16.355 5.418 14.72-6.108 27.994-22.086 25.436-9.549-1.529-12.304-11.206-5.996-21.059 1.804-2.816-3.164-5.937-8.118-5.1-5.537.936-8.899 4.757-10.488 11.921-4.44 20.023 24.572 30.018 56.202 19.362 9.592-3.232 20.954-13.193 31.597-27.702 4.448-6.064 5.276-6.177 4.127-.559-1.51 7.383-.796 17.484 1.566 22.147 7.061 13.942 28.641 6.764 46.984-15.627l3.873-4.733c2.239-2.739 2.483-2.223 2.312 4.902-.705 29.422 19.202 30.473 42.922 2.267 6.116-7.273 6.405-6.878 2.618 3.574-2.359 6.51-4.399 13.017-4.399 14.035 0 1.097 2.565 1.394 12.034 1.394 11.896 0 11.163.274 12.492-4.665.919-3.415 2.687-9.638 4.469-15.735.459-1.571 1.94-6.249 3.608-11.4 9.953-30.729 25.205-51.976 38.927-54.223 10.481-1.717 12.108 1.519 7.252 14.423-19.675 52.281-20.594 71.811-3.419 72.708 10.997.575 26.076-10.391 37.656-27.385 3.261-4.785 3.397-4.59 3.107 4.437-.542 16.85 2.887 22.84 13.074 22.84 13.792 0 28.981-14.335 47.312-44.652 5.237-8.662 6.845-14.191 4.739-16.297-1.497-1.497-1.858-1.058-9.09 11.027-11.013 18.404-19.936 28.051-27.516 29.747-11.127 2.49-7.098-18.317 10.284-53.105 6.266-12.541 8.005-15.722 11.349-20.759 2.215-3.335 1.942-3.451-7.688-3.289l-7.61.128-2.59 1.291c-7.356 3.665-15.939 16.53-23.157 34.709-3.504 8.825-7.932 16.579-14.392 25.2-7.754 10.35-17.855 17.581-21.877 15.663-4.766-2.272-2.979-12.013 7.126-38.841 7.379-19.592 7.895-21.279 7.898-25.822.007-9.067-4.202-13.353-13.089-13.329-12.167.034-23.317 4.343-34.499 13.332-5.671 4.559-6.298 4.495-4.999-.515 1.51-5.82.952-8.449-2.242-10.562-2.61-1.728-18.893-2.399-19.336-.798-.072.26-.329 2.657-.572 5.328-1 11.014-6.161 28.278-10.738 35.921-10.304 17.206-15.783 24.621-22.191 30.029-13.448 11.348-18.738 4.64-12.465-15.806 4.879-15.905 17.477-42.262 24.764-51.812 3.76-4.928 3.398-5.161-7.67-4.924-12.399.265-17.199 4.932-28.739 27.936-18.391 36.663-31.46 54.498-39.994 54.58-10.675.104-7.964-20.239 6.955-52.18 3.7-7.924 8.361-16.525 11.891-21.947 3.314-5.09 3.371-5.029-4.864-5.167-11.774-.198-15.134.606-18.38 4.399-3.24 3.785-8.912 14.535-13.043 24.719-6.781 16.718-21.349 38.313-31.973 47.396-5.864 5.014-7.294 5.045-3.926.086 9.705-14.291 5.717-27.8-12.206-41.351-14.399-10.886-18.07-16.736-15.639-24.921 2.85-9.598 21.406-13.66 25.575-5.599 1.797 3.475.095 6.695-5.503 10.412-3.207 2.128-4.3 3.421-4.303 5.086-.015 10.152 17.224 8.003 22.496-2.803 7.537-15.45-4.959-25.975-27.898-23.499" fill="#333" fill-rule="evenodd"/></svg>